<svg xmlns="http://www.w3.org/2000/svg" xmlns:xlink="http://www.w3.org/1999/xlink" width="100" height="100" viewBox="0 0 100 100">
    <defs>
        <linearGradient id="n15edsm4va" x1="8.57%" x2="75.793%" y1="12.496%" y2="73.636%">
            <stop offset="0%" stop-color="#C7DFFF"/>
            <stop offset="0%" stop-color="#C7DFFF"/>
            <stop offset="100%" stop-color="#A6CDFF"/>
        </linearGradient>
        <linearGradient id="t864s8qhob" x1="18.809%" x2="81.226%" y1="15.804%" y2="84.329%">
            <stop offset="0%" stop-color="#C7DFFF"/>
            <stop offset="0%" stop-color="#C7DFFF"/>
            <stop offset="100%" stop-color="#A6CDFF"/>
        </linearGradient>
        <linearGradient id="5pves79hqc" x1="18.861%" x2="54.736%" y1="18.861%" y2="54.75%">
            <stop offset="0%" stop-color="#FFD800"/>
            <stop offset="100%" stop-color="#FFD800" stop-opacity="0"/>
        </linearGradient>
        <linearGradient id="je1id0ftue" x1="22.533%" x2="85.133%" y1="22.533%" y2="85.133%">
            <stop offset="0%" stop-color="#FFCC14"/>
            <stop offset="100%" stop-color="#FFB90A"/>
        </linearGradient>
        <linearGradient id="7yt0niy0sh" x1="-24.889%" x2="63.398%" y1="9.69%" y2="64.856%">
            <stop offset="0%" stop-color="#E9E9ED"/>
            <stop offset="100%" stop-color="#DEDFE3"/>
        </linearGradient>
        <linearGradient id="0hbp2ult7i" x1="8.536%" x2="39.762%" y1="7.181%" y2="39.439%">
            <stop offset="0%" stop-color="#FFF"/>
            <stop offset="100%" stop-color="#FFF" stop-opacity="0"/>
        </linearGradient>
        <linearGradient id="n90uycmjcj" x1="29.198%" x2="59.177%" y1="1.588%" y2="71.349%">
            <stop offset="0%" stop-color="#FFF"/>
            <stop offset="100%" stop-color="#FFF" stop-opacity="0"/>
        </linearGradient>
        <filter id="vfzrnb0puf" width="155.6%" height="183.3%" x="-27.8%" y="-41.7%" filterUnits="objectBoundingBox">
            <feOffset in="SourceAlpha" result="shadowOffsetOuter1"/>
            <feGaussianBlur in="shadowOffsetOuter1" result="shadowBlurOuter1" stdDeviation="5"/>
            <feColorMatrix in="shadowBlurOuter1" result="shadowMatrixOuter1" values="0 0 0 0 0.619607843 0 0 0 0 0.215686275 0 0 0 0 0 0 0 0 0.3 0"/>
            <feMerge>
                <feMergeNode in="shadowMatrixOuter1"/>
                <feMergeNode in="SourceGraphic"/>
            </feMerge>
        </filter>
        <circle id="ouxhm33qjd" cx="17.088" cy="17.256" r="17.045"/>
    </defs>
    <g fill="none" fill-rule="evenodd">
        <g>
            <g>
                <g fill-rule="nonzero">
                    <g>
                        <path fill="url(#n15edsm4va)" d="M5.756 2.42l-.489.847-.483-.847c-.197-.35-.525-.607-.913-.714-.387-.106-.801-.054-1.15.146-.35.197-.607.526-.713.913-.107.387-.055.801.145 1.15l.489.84h-.937c-.835 0-1.512.677-1.512 1.512S.87 7.778 1.705 7.778h.971l-.489.841c-.413.728-.16 1.654.569 2.069.726.41 1.648.156 2.062-.569l.483-.84.489.84c.255.496.762.81 1.32.82.557.008 1.074-.29 1.345-.778.27-.488.25-1.085-.052-1.553l-.483-.841h.972c.835 0 1.511-.677 1.511-1.511 0-.835-.676-1.512-1.511-1.512H7.886l.483-.84c.37-.717.111-1.598-.587-2.001-.698-.404-1.59-.188-2.026.489v.028z" transform="translate(-1706 -507) translate(1706 507) translate(36.932 60.795)"/>
                        <path fill="url(#t864s8qhob)" d="M40.517 16.267l-4.909 1.347-.642-.375-1.875-1.932 2.182-2.188.335-.193 4.909 1.313c.758.204 1.538-.245 1.742-1.003.203-.758-.245-1.538-1.003-1.742l-2.165-.568 2.034-1.17c.68-.393.915-1.263.523-1.943-.393-.681-1.263-.915-1.943-.523L37.67 8.466 38.24 6.3c.187-.752-.263-1.516-1.012-1.716-.75-.2-1.52.238-1.733.983l-1.318 4.91-.653.317-2.665.67-.744-2.63v-.744l3.59-3.591c.36-.36.5-.883.369-1.374-.132-.49-.515-.874-1.006-1.005-.49-.132-1.015.008-1.374.368l-1.58 1.585v-2.37c0-.784-.635-1.42-1.42-1.42-.784 0-1.42.636-1.42 1.42v2.347l-1.585-1.585c-.36-.36-.883-.5-1.374-.368-.491.131-.874.515-1.006 1.005-.131.491.009 1.015.368 1.374l3.597 3.591v.392l-.807 2.983-2.602-.648-.648-.369-1.313-4.909c-.24-.71-.989-1.111-1.713-.917-.723.193-1.172.915-1.025 1.65l.568 2.165-2.028-1.176c-.44-.254-.983-.254-1.423.001-.44.255-.711.725-.71 1.233 0 .508.272.978.712 1.232l2.029 1.17-2.16.568c-.493.133-.878.52-1.01 1.013-.13.493.011 1.02.373 1.38.362.361.888.502 1.382.369l4.909-1.313.335.193 2.182 2.188-1.87 1.932-.647.375-4.91-1.319c-.751-.187-1.515.263-1.715 1.012-.2.75.237 1.52.983 1.733l2.159.568-2.029 1.176c-.443.252-.717.722-.718 1.232-.001.51.271.98.713 1.235.442.253.986.251 1.426-.007l2.028-1.17-.568 2.159c-.167.502-.041 1.056.325 1.437.367.382.915.529 1.424.382.508-.146.894-.562 1.001-1.08l1.313-4.91.34-.193 2.932-.784.79 2.932v.386l-3.596 3.597c-.268.266-.418.628-.418 1.006 0 .377.15.739.418 1.005.556.554 1.455.554 2.01 0l1.586-1.585v2.347c0 .784.636 1.42 1.42 1.42.785 0 1.421-.636 1.421-1.42v-2.347l1.58 1.585c.359.36.883.5 1.373.368.491-.131.875-.514 1.006-1.005.132-.491-.009-1.015-.368-1.374l-3.62-3.58v-.744l.74-2.585 2.982.795.335.193 1.319 4.91c.204.757.983 1.206 1.741 1.002.758-.204 1.207-.983 1.003-1.741l-.568-2.16 2.034 1.171c.679.386 1.542.152 1.932-.524.39-.677.162-1.541-.512-1.936l-2.034-1.176 2.165-.568c.758-.204 1.207-.984 1.003-1.742-.204-.758-.984-1.207-1.742-1.003l.006-.011zm-13.023.188c-.324-.32-.507-.758-.507-1.214 0-.455.183-.892.507-1.213.32-.324.757-.507 1.213-.507.456 0 .893.183 1.213.507.325.32.508.758.508 1.213 0 .456-.183.893-.508 1.214-.317.327-.752.514-1.208.518-.456.004-.894-.174-1.218-.496v-.022z" transform="translate(-1706 -507) translate(1706 507) translate(36.932 60.795)"/>
                    </g>
                </g>
                <g>
                    <g fill="url(#5pves79hqc)" fill-rule="nonzero" opacity=".3" transform="translate(-1706 -507) translate(1706 507) translate(11.364 8.523)">
                        <circle cx="20.727" cy="20.665" r="20.455"/>
                    </g>
                    <g transform="translate(-1706 -507) translate(1706 507) translate(11.364 8.523) translate(3.639 3.41)">
                        <mask id="zpm5cr7amg" fill="#fff">
                            <use xlink:href="#ouxhm33qjd"/>
                        </mask>
                        <use fill="url(#je1id0ftue)" fill-rule="nonzero" xlink:href="#ouxhm33qjd"/>
                        <g fill-rule="nonzero" filter="url(#vfzrnb0puf)" mask="url(#zpm5cr7amg)">
                            <g transform="translate(2.557 -.568)">
                                <path fill="url(#7yt0niy0sh)" d="M53.741 12.756h-.193C50.06 4.394 41.61-.73 32.656.085 23.701.9 16.298 7.468 14.35 16.325 6.014 17.024-.29 24.238.07 32.671c.358 8.433 7.249 15.077 15.614 15.055h38.064c9.57 0 17.33-7.828 17.33-17.486 0-9.657-7.76-17.485-17.33-17.485h-.006z"/>
                                <ellipse cx="53.747" cy="30.114" fill="url(#0hbp2ult7i)" opacity=".25" rx="17.33" ry="17.614"/>
                            </g>
                        </g>
                    </g>
                </g>
                <g fill-rule="nonzero" transform="translate(-1706 -507) translate(1706 507) translate(17.56 11.364)">
                    <path fill="url(#7yt0niy0sh)" d="M53.741 12.756h-.193C50.06 4.394 41.61-.73 32.656.085 23.701.9 16.298 7.468 14.35 16.325 6.014 17.024-.29 24.238.07 32.671c.358 8.433 7.249 15.077 15.614 15.055h38.064c9.57 0 17.33-7.828 17.33-17.486 0-9.657-7.76-17.485-17.33-17.485h-.006z"/>
                    <path fill="url(#n90uycmjcj)" d="M55.168 20.739c0 11.453-9.285 20.738-20.739 20.738-11.453 0-20.738-9.285-20.738-20.738C13.69 9.285 22.976 0 34.429 0c11.454 0 20.739 9.285 20.739 20.739z" opacity=".5"/>
                    <ellipse cx="53.747" cy="30.114" fill="url(#0hbp2ult7i)" opacity=".25" rx="17.33" ry="17.614"/>
                </g>
            </g>
        </g>
    </g>
</svg>
