<svg xmlns="http://www.w3.org/2000/svg" xmlns:xlink="http://www.w3.org/1999/xlink" width="100" height="100" viewBox="0 0 100 100">
    <defs>
        <linearGradient id="wsd6x0v7ma" x1="18.676%" x2="81.331%" y1="15.675%" y2="84.268%">
            <stop offset="0%" stop-color="#C7DFFF"/>
            <stop offset="0%" stop-color="#C7DFFF"/>
            <stop offset="100%" stop-color="#A6CDFF"/>
        </linearGradient>
        <linearGradient id="k7bf2xg48b" x1="87.452%" x2="54.616%" y1="87.452%" y2="54.624%">
            <stop offset="0%" stop-color="#7FAAFF"/>
            <stop offset="100%" stop-color="#7ABEF5"/>
        </linearGradient>
        <linearGradient id="zov5mwa3me" x1="7.773%" x2="78.617%" y1="14.582%" y2="71.982%">
            <stop offset="0%" stop-color="#C7DFFF"/>
            <stop offset="0%" stop-color="#C7DFFF"/>
            <stop offset="100%" stop-color="#A6CDFF"/>
        </linearGradient>
        <linearGradient id="31yegt4hrf" x1="104.245%" x2="169.387%" y1="252.306%" y2="315.069%">
            <stop offset="0%" stop-color="#C7DFFF"/>
            <stop offset="0%" stop-color="#C7DFFF"/>
            <stop offset="100%" stop-color="#A6CDFF"/>
        </linearGradient>
        <linearGradient id="a5equrx2kg" x1="11.462%" x2="74.394%" y1="8.056%" y2="76.411%">
            <stop offset="0%" stop-color="#C7DFFF"/>
            <stop offset="0%" stop-color="#C7DFFF"/>
            <stop offset="100%" stop-color="#A6CDFF"/>
        </linearGradient>
        <path id="6h9r19ta8c" d="M0 0L14.164 0 14.164 14.164 0 14.164z"/>
    </defs>
    <g fill="none" fill-rule="evenodd">
        <g>
            <g>
                <path fill="url(#wsd6x0v7ma)" fill-rule="nonzero" d="M38.239 33.813l-4.898 1.312-.648-.37-1.87-1.931L33 30.642l.34-.193 4.899 1.312c.757.204 1.537-.245 1.741-1.002.204-.758-.245-1.538-1.003-1.742l-2.164-.568 2.034-1.176c.471-.237.772-.716.782-1.243.01-.528-.273-1.017-.735-1.271-.463-.255-1.028-.232-1.468.06l-2.028 1.164.568-2.16c.187-.751-.263-1.515-1.012-1.715-.749-.2-1.52.237-1.732.983l-1.313 4.898-.659.375-2.653.664-.75-2.636v-.744l3.585-3.585c.502-.562.478-1.419-.055-1.952-.533-.532-1.389-.556-1.95-.054l-1.58 1.58v-2.319c0-.784-.636-1.42-1.42-1.42-.785 0-1.421.636-1.421 1.42v2.341l-1.557-1.602c-.356-.37-.884-.519-1.381-.39-.497.13-.885.517-1.016 1.014-.13.496.017 1.024.386 1.381l3.59 3.586v.392l-.8 2.977-2.609-.653-.642-.375-1.312-4.898c-.124-.498-.507-.89-1.002-1.026s-1.025.005-1.386.37c-.36.364-.497.895-.357 1.389l.569 2.159-2.029-1.17c-.672-.331-1.486-.082-1.859.568-.372.65-.175 1.479.45 1.892l2.029 1.176-2.16.568c-.745.213-1.182.984-.982 1.733.2.749.963 1.199 1.715 1.011l4.904-1.312.335.193 2.176 2.182-1.87 1.932-.641.369-4.904-1.313c-.493-.14-1.024-.004-1.389.357-.364.361-.506.891-.37 1.386.136.495.529.878 1.026 1.002l2.16.568-2.029 1.17c-.627.415-.823 1.246-.446 1.897.376.65 1.195.895 1.867.558l2.028-1.17-.568 2.159c-.204.757.245 1.537 1.003 1.741.757.204 1.537-.245 1.741-1.003l1.313-4.903.335-.193 2.926-.779.79 2.92v.393L21.449 43.5c-.556.555-.556 1.456 0 2.011.555.556 1.456.556 2.011 0l1.58-1.585v2.347c0 .784.636 1.42 1.42 1.42.785 0 1.42-.636 1.42-1.42v-2.336l1.58 1.586c.558.537 1.444.528 1.991-.02.548-.549.554-1.435.015-1.992l-3.585-3.585v-.721l.733-2.586 2.977.796.34.193 1.313 4.903c.205.756.983 1.203 1.739 1 .363-.098.673-.335.864-.659.184-.328.235-.715.142-1.08l-.569-2.158 2.029 1.17c.44.29 1.005.314 1.467.06.463-.255.746-.744.736-1.272-.01-.527-.311-1.006-.783-1.242l-2.034-1.17L39 36.59c.758-.203 1.207-.983 1.003-1.74-.204-.758-.984-1.207-1.742-1.003l-.022-.035zM27.665 34c-.32.326-.759.51-1.216.51-.457 0-.896-.184-1.216-.51-.324-.32-.507-.757-.507-1.213 0-.456.183-.893.507-1.213.433-.435 1.066-.605 1.658-.447.593.159 1.057.62 1.216 1.213.16.593-.009 1.226-.442 1.66z" transform="translate(-1295 -643) translate(1295 643)"/>
                <g>
                    <path fill="url(#k7bf2xg48b)" fill-rule="nonzero" d="M6.483 36.886c9.175-.003 17.856-4.157 23.615-11.299 5.76-7.142 7.98-16.506 6.038-25.473 14.757 3.194 24.92 16.752 23.85 31.812-1.072 15.061-13.052 27.043-28.113 28.117-15.06 1.074-28.62-9.088-31.816-23.844 2.112.455 4.266.685 6.426.687z" transform="translate(-1295 -643) translate(1295 643) translate(24.432 19.318)"/>
                    <g transform="translate(-1295 -643) translate(1295 643) translate(24.432 19.318) translate(52.84 50)">
                        <mask id="d3r4dewyld" fill="#fff">
                            <use xlink:href="#6h9r19ta8c"/>
                        </mask>
                        <path fill="#FFDD1C" d="M7.082 0C5.406 4.047 4.047 5.406 0 7.082c4.047 1.677 5.406 3.036 7.082 7.082 1.676-4.046 3.035-5.405 7.082-7.082C10.118 5.406 8.758 4.047 7.082 0" mask="url(#d3r4dewyld)"/>
                    </g>
                </g>
                <path fill="url(#zov5mwa3me)" fill-rule="nonzero" d="M21.472 65.977l-.319.568-.318-.568c-.274-.472-.878-.634-1.352-.363-.227.131-.392.348-.46.602-.066.253-.03.523.102.75l.318.568h-.636c-.37-.028-.725.153-.918.47-.194.317-.194.715 0 1.032.193.316.548.498.918.47h.636l-.318.568c-.132.227-.168.497-.101.75.067.254.232.47.459.602.475.267 1.076.106 1.352-.364l.318-.568.319.569c.16.336.495.555.868.564.372.01.719-.191.895-.52.177-.328.154-.727-.059-1.033l-.318-.568h.636c.516-.04.914-.47.914-.986 0-.517-.398-.947-.914-.986h-.63l.318-.568c.213-.306.236-.706.059-1.034-.177-.328-.523-.529-.896-.52-.372.01-.708.228-.868.565h-.005z" opacity=".8" transform="translate(-1295 -643) translate(1295 643)"/>
                <path fill="url(#31yegt4hrf)" fill-rule="nonzero" d="M16.682 76.932l-.443.25v-.477c0-.438-.353-.793-.79-.796-.44 0-.796.356-.796.796v.505l-.448-.278c-.379-.218-.862-.089-1.08.29-.218.378-.088.861.29 1.08l.443.255-.443.255c-.183.104-.317.277-.371.48-.055.203-.025.419.081.6.104.183.276.317.48.371.202.055.418.025.6-.081l.443-.25v.505c-.026.3.12.588.375.745.256.157.579.157.834 0 .256-.157.401-.445.376-.745v-.505l.443.25c.378.218.862.088 1.08-.29.218-.378.088-.861-.29-1.08l-.438-.255.438-.256c.245-.14.395-.402.395-.684 0-.283-.15-.544-.394-.685-.245-.141-.546-.141-.79 0h.005z" opacity=".7" transform="translate(-1295 -643) translate(1295 643)"/>
                <path fill="url(#a5equrx2kg)" fill-rule="nonzero" d="M5.307 55.801l.909.529-.91.522c-.376.217-.652.574-.765.995-.113.42-.054.867.164 1.244.462.77 1.458 1.024 2.232.568l.915-.523v1.091c.051.865.767 1.54 1.634 1.54.866 0 1.582-.675 1.633-1.54v-1.05l.91.522c.376.215.823.272 1.242.158.419-.114.775-.39.99-.766.448-.782.181-1.778-.596-2.233l-.915-.523.915-.528c.784-.452 1.054-1.454.602-2.239-.452-.784-1.454-1.054-2.239-.602l-.909.528v-1.05c-.05-.866-.767-1.54-1.633-1.54-.867 0-1.583.674-1.634 1.54V53.5l-.915-.528c-.784-.45-1.785-.18-2.235.605-.45.784-.18 1.785.605 2.236V55.8z" opacity=".9" transform="translate(-1295 -643) translate(1295 643)"/>
            </g>
        </g>
    </g>
</svg>
