<svg width="100" height="100" viewBox="0 0 100 100" xmlns="http://www.w3.org/2000/svg">
    <defs>
        <linearGradient x1="-24.662%" y1="11.142%" x2="62.751%" y2="64.279%" id="soet80fwza">
            <stop stop-color="#E9E9ED" offset="0%"/>
            <stop stop-color="#DEDFE3" offset="100%"/>
        </linearGradient>
        <linearGradient x1="7.433%" y1="7.406%" x2="50.395%" y2="50.381%" id="gygywblm9b">
            <stop stop-color="#FFF" offset="0%"/>
            <stop stop-color="#FFF" stop-opacity="0" offset="100%"/>
        </linearGradient>
        <linearGradient x1="7.173%" y1="7.173%" x2="39.43%" y2="39.43%" id="rcnk6ono7c">
            <stop stop-color="#FFF" offset="0%"/>
            <stop stop-color="#FFF" stop-opacity="0" offset="100%"/>
        </linearGradient>
        <linearGradient x1="50%" y1="113.043%" x2="50%" y2="-13.043%" id="wqxc4tibjd">
            <stop stop-color="#61ADFF" stop-opacity=".6" offset="0%"/>
            <stop stop-color="#61ADFF" stop-opacity=".6" offset="0%"/>
            <stop stop-color="#5DA9FF" stop-opacity=".73" offset="11%"/>
            <stop stop-color="#5AA6FF" stop-opacity=".83" offset="23%"/>
            <stop stop-color="#57A4FF" stop-opacity=".9" offset="36%"/>
            <stop stop-color="#55A2FF" stop-opacity=".96" offset="50%"/>
            <stop stop-color="#54A1FF" stop-opacity=".99" offset="68%"/>
            <stop stop-color="#54A1FF" offset="100%"/>
        </linearGradient>
        <linearGradient x1="50%" y1="150%" x2="50%" y2="-50%" id="jdu4z51w5e">
            <stop stop-color="#61ADFF" offset="0%"/>
            <stop stop-color="#54A1FF" offset="100%"/>
        </linearGradient>
        <linearGradient x1="50%" y1="113.043%" x2="50%" y2="-13.043%" id="9nn9e66pxf">
            <stop stop-color="#61ADFF" stop-opacity=".6" offset="0%"/>
            <stop stop-color="#61ADFF" stop-opacity=".6" offset="0%"/>
            <stop stop-color="#5DA9FF" stop-opacity=".73" offset="11%"/>
            <stop stop-color="#5AA6FF" stop-opacity=".83" offset="23%"/>
            <stop stop-color="#57A4FF" stop-opacity=".9" offset="36%"/>
            <stop stop-color="#55A2FF" stop-opacity=".96" offset="50%"/>
            <stop stop-color="#54A1FF" stop-opacity=".99" offset="68%"/>
            <stop stop-color="#54A1FF" offset="100%"/>
        </linearGradient>
    </defs>
    <g fill-rule="nonzero" fill="none">
        <path d="M69.63 26.42h-.204a22.33 22.33 0 0 0-42.38 3.824c-9.096.779-15.916 8.66-15.381 17.773.511 8.972 8.17 15.87 17.159 15.87H69.63a18.75 18.75 0 1 0 0-37.467z" fill="url(#soet80fwza)"/>
        <path d="M69.63 26.42h-.204a22.33 22.33 0 0 0-42.38 3.824c-9.096.779-15.916 8.66-15.381 17.773.511 8.972 8.17 15.87 17.159 15.87H69.63a18.75 18.75 0 1 0 0-37.467z" fill="#A3A5AA" opacity=".05"/>
        <path d="M71.16 35.074A22.324 22.324 0 1 1 48.863 12.75c12.319.013 22.298 10.005 22.295 22.324z" fill="url(#gygywblm9b)" opacity=".35"/>
        <circle fill="url(#rcnk6ono7c)" opacity=".25" cx="69.631" cy="45.153" r="18.733"/>
        <path d="M38.905 52.955c.907 0 1.65.71 1.701 1.604l.003.1v10.068a1.705 1.705 0 0 1-3.406.1l-.003-.1V54.66c0-.941.763-1.704 1.705-1.704z" fill="url(#wqxc4tibjd)"/>
        <path d="M47.385 67.273c.907 0 1.65.71 1.701 1.604l.003.1v3.41a1.705 1.705 0 0 1-3.406.1l-.003-.1v-3.41c0-.941.763-1.704 1.705-1.704zM64.345 65.273c.907 0 1.65.71 1.701 1.604l.003.1v3.41a1.705 1.705 0 0 1-3.406.1l-.003-.1v-3.41c0-.941.763-1.704 1.705-1.704zM38.905 68.273c.907 0 1.65.71 1.701 1.604l.003.1v3.41a1.705 1.705 0 0 1-3.406.1l-.003-.1v-3.41c0-.941.763-1.704 1.705-1.704z" fill="url(#jdu4z51w5e)"/>
        <path d="M55.865 54.955c.907 0 1.65.71 1.701 1.604l.003.1v13.068a1.705 1.705 0 0 1-3.406.1l-.003-.1V56.66c0-.941.763-1.704 1.705-1.704z" fill="url(#9nn9e66pxf)"/>
        <path d="M55.865 73.273c.907 0 1.65.71 1.701 1.604l.003.1v3.41a1.705 1.705 0 0 1-3.406.1l-.003-.1v-3.41c0-.941.763-1.704 1.705-1.704z" fill="url(#jdu4z51w5e)"/>
    </g>
</svg>
