<svg xmlns="http://www.w3.org/2000/svg" width="100" height="100" viewBox="0 0 100 100">
    <defs>
        <linearGradient id="paohybonha" x1="50%" x2="50%" y1="105.469%" y2="-5.469%">
            <stop offset="0%" stop-color="#61ADFF" stop-opacity=".6"/>
            <stop offset="0%" stop-color="#61ADFF" stop-opacity=".6"/>
            <stop offset="11%" stop-color="#5DA9FF" stop-opacity=".73"/>
            <stop offset="23%" stop-color="#5AA6FF" stop-opacity=".83"/>
            <stop offset="36%" stop-color="#57A4FF" stop-opacity=".9"/>
            <stop offset="50%" stop-color="#55A2FF" stop-opacity=".96"/>
            <stop offset="68%" stop-color="#54A1FF" stop-opacity=".99"/>
            <stop offset="100%" stop-color="#54A1FF"/>
        </linearGradient>
        <linearGradient id="axy8tqlcbb" x1="50%" x2="50%" y1="138.889%" y2="-38.889%">
            <stop offset="0%" stop-color="#61ADFF" stop-opacity=".6"/>
            <stop offset="0%" stop-color="#61ADFF" stop-opacity=".6"/>
            <stop offset="11%" stop-color="#5DA9FF" stop-opacity=".73"/>
            <stop offset="23%" stop-color="#5AA6FF" stop-opacity=".83"/>
            <stop offset="36%" stop-color="#57A4FF" stop-opacity=".9"/>
            <stop offset="50%" stop-color="#55A2FF" stop-opacity=".96"/>
            <stop offset="68%" stop-color="#54A1FF" stop-opacity=".99"/>
            <stop offset="100%" stop-color="#54A1FF"/>
        </linearGradient>
        <linearGradient id="vg7o7prg8c" x1="50%" x2="50%" y1="104.217%" y2="-4.217%">
            <stop offset="0%" stop-color="#61ADFF" stop-opacity=".5"/>
            <stop offset="7%" stop-color="#5EABFF" stop-opacity=".6"/>
            <stop offset="17%" stop-color="#5BA8FF" stop-opacity=".72"/>
            <stop offset="28%" stop-color="#59A5FF" stop-opacity=".83"/>
            <stop offset="40%" stop-color="#57A3FF" stop-opacity=".9"/>
            <stop offset="54%" stop-color="#55A2FF" stop-opacity=".96"/>
            <stop offset="71%" stop-color="#54A1FF" stop-opacity=".99"/>
            <stop offset="100%" stop-color="#54A1FF"/>
        </linearGradient>
        <linearGradient id="5e81n4zt0d" x1="50%" x2="50%" y1="109.211%" y2="-9.211%">
            <stop offset="0%" stop-color="#61ADFF" stop-opacity=".5"/>
            <stop offset="7%" stop-color="#5EABFF" stop-opacity=".6"/>
            <stop offset="17%" stop-color="#5BA8FF" stop-opacity=".72"/>
            <stop offset="28%" stop-color="#59A5FF" stop-opacity=".83"/>
            <stop offset="40%" stop-color="#57A3FF" stop-opacity=".9"/>
            <stop offset="54%" stop-color="#55A2FF" stop-opacity=".96"/>
            <stop offset="71%" stop-color="#54A1FF" stop-opacity=".99"/>
            <stop offset="100%" stop-color="#54A1FF"/>
        </linearGradient>
        <linearGradient id="1vw0mkgbpe" x1="13.42%" x2="72.885%" y1="9.399%" y2="75.71%">
            <stop offset="0%" stop-color="#C7DFFF"/>
            <stop offset="0%" stop-color="#C7DFFF"/>
            <stop offset="100%" stop-color="#A6CDFF"/>
        </linearGradient>
        <linearGradient id="2qjz3raxof" x1="8.133%" x2="76.388%" y1="10.99%" y2="74.579%">
            <stop offset="0%" stop-color="#C7DFFF"/>
            <stop offset="0%" stop-color="#C7DFFF"/>
            <stop offset="100%" stop-color="#A6CDFF"/>
        </linearGradient>
        <linearGradient id="uuwd6qaq3g" x1="10.976%" x2="74.421%" y1="29.083%" y2="98.074%">
            <stop offset="0%" stop-color="#C7DFFF"/>
            <stop offset="0%" stop-color="#C7DFFF"/>
            <stop offset="100%" stop-color="#A6CDFF"/>
        </linearGradient>
    </defs>
    <g fill="none" fill-rule="evenodd">
        <g fill-rule="nonzero">
            <g>
                <path fill="url(#paohybonha)" d="M28.977 17.045c1.062 0 1.93.832 1.986 1.88l.003.11v36.363c0 1.098-.89 1.988-1.989 1.988-1.061 0-1.929-.832-1.985-1.88l-.003-.108V19.034c0-1.098.89-1.989 1.988-1.989z" transform="translate(-473 -507) translate(473 507)"/>
                <g fill="url(#axy8tqlcbb)" opacity=".7" transform="translate(-473 -507) translate(473 507) translate(26.705 61.932)">
                    <path d="M2.273 0c1.061 0 1.929.832 1.985 1.88l.003.109v5.113c0 1.099-.89 1.989-1.988 1.989-1.062 0-1.93-.832-1.986-1.88l-.003-.109V1.99C.284.89 1.174 0 2.273 0z"/>
                </g>
                <g fill="url(#vg7o7prg8c)" opacity=".9" transform="translate(-473 -507) translate(473 507) translate(35.795 27.84)">
                    <path d="M2.273 0c1.061 0 1.929.832 1.985 1.88l.003.109v47.159c0 1.098-.89 1.988-1.988 1.988-1.062 0-1.93-.832-1.986-1.88l-.003-.108V1.988C.284.89 1.174 0 2.273 0z"/>
                </g>
                <path fill="url(#5e81n4zt0d)" d="M19.886 40.91c1.062 0 1.93.831 1.986 1.879l.003.109v21.59c0 1.099-.89 1.99-1.989 1.99-1.061 0-1.929-.833-1.985-1.88l-.003-.11v-21.59c0-1.099.89-1.989 1.988-1.989z" transform="translate(-473 -507) translate(473 507)"/>
                <path fill="url(#1vw0mkgbpe)" d="M65.847 72.193l1.295.75-1.295.75c-.534.308-.922.815-1.081 1.41-.159.595-.075 1.228.234 1.76.308.534.815.923 1.41 1.081.594.16 1.228.075 1.76-.234l1.296-.744v1.494c-.042.857.39 1.667 1.126 2.108.736.441 1.654.441 2.39 0 .735-.44 1.168-1.251 1.126-2.108v-1.494l1.295.744c1.112.64 2.531.262 3.177-.846.638-1.111.257-2.53-.853-3.17l-1.295-.75 1.295-.75c.745-.403 1.213-1.178 1.221-2.024.008-.847-.444-1.63-1.182-2.046-.737-.416-1.642-.398-2.363.046l-1.295.75v-1.494c.042-.856-.39-1.667-1.126-2.108-.736-.44-1.654-.44-2.39 0-.736.441-1.168 1.252-1.126 2.108v1.494l-1.284-.738c-1.106-.597-2.486-.205-3.115.883s-.278 2.48.791 3.14l-.011-.012z" opacity=".9" transform="translate(-473 -507) translate(473 507)"/>
                <path fill="url(#2qjz3raxof)" d="M51.989 57.34l-.569.972-.568-.971c-.48-.828-1.539-1.113-2.369-.636-.4.232-.692.615-.808 1.063-.116.449-.049.925.189 1.323l.568.966h-1.137c-.92.052-1.639.814-1.639 1.736 0 .921.72 1.683 1.64 1.735h1.136l-.568.966c-.232.4-.296.874-.176 1.32.12.446.412.826.812 1.055.83.477 1.89.192 2.37-.636l.568-.972.568.972c.292.573.876.938 1.52.95.643.01 1.24-.335 1.55-.898.312-.563.287-1.252-.065-1.79l-.568-.967h1.137c.92-.052 1.639-.814 1.639-1.735 0-.922-.72-1.684-1.64-1.736h-1.136l.568-.966c.352-.539.377-1.228.066-1.79-.312-.564-.908-.909-1.552-.898-.643.01-1.227.376-1.52.95l-.016-.012z" opacity=".8" transform="translate(-473 -507) translate(473 507)"/>
                <path fill="url(#uuwd6qaq3g)" d="M72.59 23.977l-1.613 6.04-.795.46-3.21.807-.989-3.67v-.478l4.42-4.409c.663-.686.654-1.776-.02-2.451-.673-.675-1.764-.687-2.451-.026l-1.949 1.949v-2.88c-.089-.896-.842-1.578-1.742-1.578s-1.652.682-1.741 1.577v2.887l-1.949-1.95c-.682-.687-1.793-.69-2.48-.008-.687.683-.691 1.793-.008 2.48l4.437 4.41v.914l-.926 3.25-3.273-.824-.795-.46-1.637-6.04c-.135-.632-.609-1.138-1.23-1.316-.623-.177-1.292.003-1.741.469-.449.466-.604 1.141-.404 1.756l.71 2.66-2.5-1.444c-.831-.44-1.863-.145-2.334.67-.472.816-.213 1.858.585 2.359l2.5 1.443-2.66.71c-.878.292-1.377 1.219-1.138 2.113.24.895 1.135 1.448 2.042 1.262l6.04-1.614.414.24 2.688 2.692-2.307 2.375-.795.46-6.04-1.619c-.61-.161-1.258.015-1.702.461-.444.447-.617 1.097-.452 1.705.165.608.641 1.082 1.25 1.243l2.66.71-2.5 1.444c-.838.483-1.126 1.554-.642 2.392.483.838 1.554 1.125 2.392.642l2.5-1.472-.71 2.66c-.162.602.01 1.245.452 1.687.441.44 1.085.613 1.687.451.603-.161 1.074-.632 1.235-1.235l1.62-6.04.414-.239 3.677-.977.92 3.182v.92l-4.42 4.42c-.624.692-.597 1.752.062 2.41.658.659 1.717.686 2.41.062L62.5 49.67v2.887c0 .966.784 1.75 1.75 1.75s1.75-.784 1.75-1.75V49.67l1.949 1.95c.692.623 1.75.596 2.41-.063.658-.658.685-1.718.061-2.41L66 44.728v-.483l.972-3.602 3.608.96.414.239 1.614 6.04c.25.933 1.208 1.488 2.142 1.238.931-.252 1.485-1.209 1.239-2.142l-.728-2.659 2.5 1.443c.837.468 1.894.176 2.372-.655.478-.83.198-1.891-.627-2.379l-2.5-1.443 2.664-.71c.942-.251 1.501-1.218 1.25-2.16-.25-.94-1.217-1.5-2.159-1.25l-6.034 1.648-.79-.46-2.306-2.375 2.681-2.693.415-.239 6.034 1.614c.684.184 1.41-.062 1.842-.623.432-.56.483-1.326.13-1.94-.233-.401-.615-.695-1.063-.818l-2.664-.71 2.5-1.443c.578-.292.947-.88.96-1.528.012-.648-.335-1.25-.901-1.564-.567-.314-1.26-.29-1.804.064l-2.5 1.443.71-2.66c.252-.94-.308-1.907-1.25-2.158-.94-.251-1.907.308-2.159 1.25l.029.005zM65.745 34.42c.401.401.627.945.627 1.512 0 .567-.226 1.11-.627 1.511-.4.401-.944.627-1.511.627s-1.11-.226-1.511-.627c-.401-.4-.627-.944-.627-1.511s.226-1.11.627-1.512c.4-.4.944-.626 1.511-.626s1.11.225 1.511.626z" transform="translate(-473 -507) translate(473 507)"/>
            </g>
        </g>
    </g>
</svg>
