<svg xmlns="http://www.w3.org/2000/svg" xmlns:xlink="http://www.w3.org/1999/xlink" width="100" height="100" viewBox="0 0 100 100">
    <defs>
        <linearGradient id="p1aa9eh9vb" x1="24.75%" x2="70.544%" y1="24.75%" y2="70.544%">
            <stop offset="0%" stop-color="#FFCC14"/>
            <stop offset="100%" stop-color="#FFBA0C"/>
        </linearGradient>
        <linearGradient id="xl7x8hi1we" x1=".107%" x2="99.947%" y1="50%" y2="50%">
            <stop offset="0%" stop-color="#F3F4FA"/>
            <stop offset="100%" stop-color="#EEEFF5"/>
        </linearGradient>
        <linearGradient id="huow8jzsqf" x1="11.809%" x2="41.691%" y1="11.824%" y2="41.706%">
            <stop offset="0%" stop-color="#FFF"/>
            <stop offset="100%" stop-color="#FFF" stop-opacity="0"/>
        </linearGradient>
        <filter id="xjrj1f4fic" width="197.9%" height="231.4%" x="-48.9%" y="-65.7%" filterUnits="objectBoundingBox">
            <feOffset dy="2" in="SourceAlpha" result="shadowOffsetOuter1"/>
            <feGaussianBlur in="shadowOffsetOuter1" result="shadowBlurOuter1" stdDeviation="5"/>
            <feColorMatrix in="shadowBlurOuter1" result="shadowMatrixOuter1" values="0 0 0 0 0.619607843 0 0 0 0 0.215686275 0 0 0 0 0 0 0 0 0.3 0"/>
            <feMerge>
                <feMergeNode in="shadowMatrixOuter1"/>
                <feMergeNode in="SourceGraphic"/>
            </feMerge>
        </filter>
        <circle id="b58yahoxra" cx="30.428" cy="30.428" r="30.428"/>
    </defs>
    <g fill="none" fill-rule="evenodd">
        <g>
            <g>
                <g>
                    <path fill="#FFD800" fill-rule="nonzero" d="M75.5 38.435v-.056C75.5 17.697 58.71.932 38 .932S.5 17.697.5 38.379v.106C.5 59.166 17.29 75.932 38 75.932s37.5-16.766 37.5-37.447v-.05z" opacity=".15" transform="translate(-747 -235) translate(747 235) translate(12 11)"/>
                    <g transform="translate(-747 -235) translate(747 235) translate(12 11) translate(7.318 7.466)">
                        <mask id="f87vduuthd" fill="#fff">
                            <use xlink:href="#b58yahoxra"/>
                        </mask>
                        <use fill="url(#p1aa9eh9vb)" fill-rule="nonzero" xlink:href="#b58yahoxra"/>
                        <g fill-rule="nonzero" filter="url(#xjrj1f4fic)" mask="url(#f87vduuthd)">
                            <g transform="translate(23.864 34.943)">
                                <path fill="url(#xl7x8hi1we)" d="M29.85 0c-6.9-.003-13.12 4.153-15.757 10.528h-2.357C5.23 10.553-.024 15.848 0 22.355c.025 6.506 5.32 11.76 11.827 11.736h18.048c9.414 0 17.045-7.632 17.045-17.046C46.92 7.632 39.29 0 29.875 0h-.025z"/>
                                <circle cx="29.85" cy="17.045" r="17.045" fill="url(#huow8jzsqf)"/>
                            </g>
                        </g>
                    </g>
                    <g fill-rule="nonzero" transform="translate(-747 -235) translate(747 235) translate(12 11) translate(31.182 42.41)">
                        <path fill="url(#xl7x8hi1we)" d="M29.85 0c-6.9-.003-13.12 4.153-15.757 10.528h-2.357C5.23 10.553-.024 15.848 0 22.355c.025 6.506 5.32 11.76 11.827 11.736h18.048c9.414 0 17.045-7.632 17.045-17.046C46.92 7.632 39.29 0 29.875 0h-.025z"/>
                        <circle cx="29.85" cy="17.045" r="17.045" fill="url(#huow8jzsqf)"/>
                    </g>
                </g>
            </g>
        </g>
    </g>
</svg>
