<svg xmlns="http://www.w3.org/2000/svg" width="100" height="100" viewBox="0 0 100 100">
    <defs>
        <linearGradient id="0z4kyjir3a" x1="15.807%" x2="95.871%" y1="15.907%" y2="96.019%">
            <stop offset="0%" stop-color="#FFD800"/>
            <stop offset="100%" stop-color="#FFD800" stop-opacity="0"/>
        </linearGradient>
        <linearGradient id="8urewbzw6b" x1="-6.956%" x2="85.88%" y1="-6.956%" y2="85.88%">
            <stop offset="0%" stop-color="#FFCC14"/>
            <stop offset="100%" stop-color="#FFB90A"/>
        </linearGradient>
        <linearGradient id="wgm3rqegyc" x1="50%" x2="50%" y1="107.378%" y2="-7.378%">
            <stop offset="0%" stop-color="#61ADFF" stop-opacity=".8"/>
            <stop offset="4%" stop-color="#5FABFF" stop-opacity=".83"/>
            <stop offset="20%" stop-color="#5AA7FF" stop-opacity=".9"/>
            <stop offset="38%" stop-color="#57A4FF" stop-opacity=".96"/>
            <stop offset="61%" stop-color="#55A2FF" stop-opacity=".99"/>
            <stop offset="100%" stop-color="#54A1FF"/>
        </linearGradient>
        <linearGradient id="wfpn4kojad" x1="50%" x2="50%" y1="128.599%" y2="-28.599%">
            <stop offset="0%" stop-color="#61ADFF" stop-opacity=".6"/>
            <stop offset="0%" stop-color="#61ADFF" stop-opacity=".6"/>
            <stop offset="11%" stop-color="#5DA9FF" stop-opacity=".73"/>
            <stop offset="23%" stop-color="#5AA6FF" stop-opacity=".83"/>
            <stop offset="36%" stop-color="#57A4FF" stop-opacity=".9"/>
            <stop offset="50%" stop-color="#55A2FF" stop-opacity=".96"/>
            <stop offset="68%" stop-color="#54A1FF" stop-opacity=".99"/>
            <stop offset="100%" stop-color="#54A1FF"/>
        </linearGradient>
        <linearGradient id="75mif1gg1e" x1="50%" x2="50%" y1="106.667%" y2="-6.667%">
            <stop offset="0%" stop-color="#61ADFF" stop-opacity=".9"/>
            <stop offset="1%" stop-color="#61ADFF" stop-opacity=".9"/>
            <stop offset="24%" stop-color="#59A6FF" stop-opacity=".96"/>
            <stop offset="52%" stop-color="#55A2FF" stop-opacity=".99"/>
            <stop offset="100%" stop-color="#54A1FF"/>
        </linearGradient>
        <linearGradient id="5p7mrf57gf" x1="50%" x2="50%" y1="108.813%" y2="-8.813%">
            <stop offset="0%" stop-color="#61ADFF" stop-opacity=".8"/>
            <stop offset="4%" stop-color="#5FABFF" stop-opacity=".83"/>
            <stop offset="20%" stop-color="#5AA7FF" stop-opacity=".9"/>
            <stop offset="38%" stop-color="#57A4FF" stop-opacity=".96"/>
            <stop offset="61%" stop-color="#55A2FF" stop-opacity=".99"/>
            <stop offset="100%" stop-color="#54A1FF"/>
        </linearGradient>
        <linearGradient id="83v21vc0zg" x1="12.605%" x2="73.2%" y1="9.511%" y2="76.202%">
            <stop offset="0%" stop-color="#C7DFFF"/>
            <stop offset="0%" stop-color="#C7DFFF"/>
            <stop offset="100%" stop-color="#A6CDFF"/>
        </linearGradient>
        <linearGradient id="rdzkt968oh" x1="18.043%" x2="80.385%" y1="40.46%" y2="108.908%">
            <stop offset="0%" stop-color="#C7DFFF"/>
            <stop offset="0%" stop-color="#C7DFFF"/>
            <stop offset="100%" stop-color="#A6CDFF"/>
        </linearGradient>
    </defs>
    <g fill="none" fill-rule="evenodd">
        <g fill-rule="nonzero">
            <g transform="translate(-884 -507) translate(884 507)">
                <path fill="url(#0z4kyjir3a)" d="M79.545 46.392v-.068c0-18.828-15.263-34.091-34.09-34.091-18.828 0-34.091 15.263-34.091 34.09v.569c.056 18.335 15.295 33.563 34.09 33.563 18.796 0 34.035-15.228 34.091-33.563v-.5z" opacity=".3"/>
                <circle cx="45.398" cy="46.324" r="28.71" fill="url(#8urewbzw6b)"/>
                <path fill="url(#wgm3rqegyc)" d="M60.227 28c.908 0 1.65.71 1.702 1.604l.003.1v23.103c0 .941-.763 1.704-1.705 1.704-.908 0-1.65-.71-1.701-1.604l-.003-.1V29.705c0-.942.763-1.705 1.704-1.705z"/>
                <g fill="url(#wfpn4kojad)" opacity=".8" transform="translate(58.523 56.818)">
                    <path d="M1.989.534c.907 0 1.65.71 1.701 1.604l.003.1v5.96c0 .942-.763 1.705-1.704 1.705-.908 0-1.65-.71-1.702-1.604l-.003-.1v-5.96c0-.942.763-1.705 1.705-1.705z"/>
                </g>
                <g fill="url(#75mif1gg1e)" opacity=".9" transform="translate(65.34 39.773)">
                    <path d="M1.705.301c.907 0 1.65.828 1.701 1.872l.003.117v28.125c0 1.098-.763 1.988-1.704 1.988-.908 0-1.65-.827-1.702-1.871L0 30.415V2.29C0 1.19.763.3 1.705.3z"/>
                </g>
                <path fill="url(#5p7mrf57gf)" d="M53.41 40.403c.907 0 1.649.71 1.7 1.605l.004.1v19.34c0 .942-.764 1.705-1.705 1.705-.908 0-1.65-.71-1.702-1.604l-.002-.1V42.108c0-.941.763-1.705 1.704-1.705z"/>
                <path fill="url(#83v21vc0zg)" d="M65.602 77.273v1.062l-.92-.528c-.38-.224-.835-.287-1.262-.173-.427.113-.791.392-1.01.775-.226.38-.29.835-.176 1.263.113.427.393.791.777 1.01l.92.534-.92.534c-.678.501-.87 1.432-.446 2.161.424.73 1.329 1.022 2.1.68l.92-.528v1.062c0 .913.74 1.653 1.654 1.653.91-.003 1.647-.742 1.647-1.653v-1.063l.927.529c.51.355 1.176.393 1.723.099.547-.295.881-.872.865-1.493-.016-.621-.38-1.18-.94-1.447l-.921-.534.92-.534c.562-.266.925-.826.941-1.447.016-.62-.318-1.198-.865-1.493-.547-.294-1.214-.256-1.724.099l-.926.528v-1.096c.036-.613-.27-1.195-.796-1.513-.525-.317-1.183-.317-1.709 0-.525.318-.832.9-.796 1.513h.017z" opacity=".8"/>
                <path fill="url(#rdzkt968oh)" d="M91.938 55.517L90.8 59.824l-.568.33-2.273.568-.704-2.62v-.34l3.153-3.154c.316-.317.438-.778.322-1.21-.116-.431-.454-.768-.886-.883-.432-.115-.893.01-1.209.326l-1.386 1.392v-2.057c-.044-.656-.59-1.166-1.247-1.166-.658 0-1.203.51-1.247 1.166v2.063l-1.42-1.398c-.497-.435-1.245-.41-1.71.057-.466.467-.489 1.216-.052 1.71l3.153 3.153v.654l-.636 2.324-2.341-.569-.568-.33-1.137-4.306c-.102-.444-.44-.798-.878-.921-.44-.124-.911.001-1.231.327-.32.325-.437.8-.305 1.236l.511 1.898-1.784-1.029c-.597-.333-1.35-.125-1.692.467-.342.592-.145 1.348.442 1.698l1.784 1.029-1.898.505c-.667.18-1.062.865-.883 1.532.179.666.864 1.062 1.531.883l4.307-1.136.295.17 1.915 1.92-1.642 1.705-.568.324-4.307-1.136c-.646-.13-1.281.265-1.452.9-.171.637.18 1.297.804 1.509l1.898.511-1.784 1.029c-.587.35-.784 1.106-.442 1.698.342.592 1.095.8 1.692.466l1.784-1.034-.511 1.898c-.18.667.216 1.352.883 1.531.667.18 1.353-.216 1.531-.883l1.137-4.307.295-.17 2.62-.7.647 2.273v.654l-3.153 3.153c-.486.486-.486 1.275 0 1.761.486.487 1.275.487 1.761 0l1.392-1.386v2.057c-.031.466.2.91.598 1.152.4.243.9.243 1.299 0 .398-.242.63-.686.598-1.152v-2.102l1.386 1.386c.235.236.554.369.886.37.504-.003.957-.308 1.15-.773.192-.466.086-1.001-.269-1.358l-3.153-3.154v-.34l.693-2.575 2.574.688.295.17 1.136 4.307c.086.32.295.593.582.758.287.165.627.21.947.123.32-.085.593-.294.758-.581.165-.287.21-.628.123-.948l-.506-1.897 1.784 1.034c.593.303 1.32.087 1.652-.49.332-.578.153-1.315-.408-1.675l-1.784-1.028 1.904-.512c.623-.212.975-.872.804-1.508-.171-.636-.806-1.03-1.452-.9l-4.313 1.136-.568-.324-1.642-1.705 1.91-1.92.295-.17 4.312 1.136c.432.115.892-.008 1.208-.324.316-.315.44-.776.324-1.207-.116-.431-.453-.768-.884-.884l-1.903-.506 1.784-1.028c.56-.36.74-1.097.407-1.675-.332-.577-1.058-.793-1.652-.49l-1.784 1.028.506-1.897c.115-.43-.009-.89-.324-1.204-.316-.314-.775-.437-1.205-.321-.43.116-.765.452-.88.883l.005.028zm-4.898 7.46c.586.59.586 1.542 0 2.131-.59.586-1.541.586-2.13 0-.285-.282-.445-.665-.445-1.065 0-.4.16-.784.444-1.066.282-.284.665-.444 1.065-.444.4 0 .784.16 1.066.444z"/>
            </g>
        </g>
    </g>
</svg>
