<svg xmlns="http://www.w3.org/2000/svg" width="100" height="100" viewBox="0 0 100 100">
    <defs>
        <linearGradient id="abby1ffvfa" x1="8.792%" x2="76.016%" y1="12.914%" y2="74.241%">
            <stop offset="0%" stop-color="#C7DFFF"/>
            <stop offset="0%" stop-color="#C7DFFF"/>
            <stop offset="100%" stop-color="#A6CDFF"/>
        </linearGradient>
        <linearGradient id="b0wg57cyxb" x1="18.777%" x2="81.187%" y1="15.734%" y2="84.285%">
            <stop offset="0%" stop-color="#C7DFFF"/>
            <stop offset="0%" stop-color="#C7DFFF"/>
            <stop offset="100%" stop-color="#A6CDFF"/>
        </linearGradient>
        <linearGradient id="gsxljagy8c" x1="90.086%" x2="45.044%" y1="90.056%" y2="45.017%">
            <stop offset="0%" stop-color="#5686E6"/>
            <stop offset="100%" stop-color="#7ABEF5"/>
        </linearGradient>
        <linearGradient id="itxcahsxjd" x1="18.295%" x2="83.91%" y1="30.052%" y2="75.86%">
            <stop offset="0%" stop-color="#DBDBDB"/>
            <stop offset="100%" stop-color="#D4D6DD"/>
        </linearGradient>
        <linearGradient id="cnaxgpjwfe" x1="29.198%" x2="59.6%" y1="1.588%" y2="34.939%">
            <stop offset="0%" stop-color="#FFF" stop-opacity=".55"/>
            <stop offset="100%" stop-color="#FFF" stop-opacity="0"/>
        </linearGradient>
        <linearGradient id="t8jgxzyxqf" x1="7.165%" x2="39.423%" y1="7.181%" y2="39.439%">
            <stop offset="0%" stop-color="#FFF" stop-opacity=".5"/>
            <stop offset="100%" stop-color="#FFF" stop-opacity="0"/>
        </linearGradient>
    </defs>
    <g fill="none" fill-rule="evenodd">
        <g fill-rule="nonzero">
            <g transform="translate(-1569 -643) translate(1569 643)">
                <path fill="url(#abby1ffvfa)" d="M43.739 66.653l-.489.841-.483-.84c-.414-.725-1.336-.979-2.062-.569-.728.415-.983 1.34-.569 2.068l.489.841h-.96c-.835 0-1.512.677-1.512 1.512 0 .834.677 1.511 1.512 1.511h.971l-.488.841c-.2.348-.253.762-.146 1.15.107.387.364.716.714.912.348.2.762.253 1.15.146.387-.106.716-.363.912-.714l.483-.846.489.846c.437.678 1.329.893 2.027.49.698-.404.956-1.284.587-2.001L45.88 72h.971c.835 0 1.512-.677 1.512-1.511 0-.835-.677-1.512-1.512-1.512h-.983l.483-.84c.302-.47.322-1.066.052-1.553-.27-.488-.788-.787-1.345-.778-.558.009-1.065.323-1.32.819v.028z"/>
                <path fill="url(#b0wg57cyxb)" d="M78.5 80.5l-4.91 1.313-.641-.37-1.875-1.932 2.182-2.187.335-.199 4.909 1.318c.758.204 1.538-.245 1.741-1.003.204-.757-.245-1.537-1.002-1.741l-2.165-.568 2.034-1.176c.674-.395.902-1.26.512-1.936-.39-.676-1.254-.91-1.933-.525l-2.034 1.17.569-2.158c.132-.49-.008-1.014-.367-1.373-.358-.36-.881-.5-1.372-.37-.49.131-.874.514-1.006 1.004l-1.318 4.91-.642.374-2.665.665-.738-2.66v-.743l3.59-3.597c.556-.556.556-1.456 0-2.011-.555-.556-1.455-.556-2.01 0l-1.58 1.585v-2.335c0-.785-.636-1.42-1.42-1.42-.785 0-1.421.635-1.421 1.42V68.3l-1.585-1.585c-.556-.556-1.456-.556-2.012 0-.555.555-.555 1.456 0 2.011l3.597 3.597v.386l-.807 2.983-2.608-.653-.648-.375-1.312-4.91c-.108-.518-.493-.934-1.002-1.08-.508-.147-1.056 0-1.423.382s-.492.935-.325 1.437l.568 2.16-2.029-1.171c-.44-.258-.983-.26-1.425-.006-.442.254-.714.725-.713 1.234 0 .51.275.98.718 1.232l2.028 1.176-2.159.569c-.745.212-1.183.983-.983 1.732.2.749.964 1.2 1.716 1.012l4.91-1.318.335.198 2.181 2.188-1.869 1.932-.648.37-4.909-1.313c-.492-.124-1.013.024-1.366.388-.354.365-.486.89-.347 1.378.14.488.528.865 1.02.99l2.16.567-2.058 1.177c-.68.392-.915 1.262-.522 1.943.392.68 1.262.915 1.943.523l2.028-1.177-.568 2.165c-.202.76.25 1.54 1.009 1.742.759.202 1.539-.25 1.741-1.009l1.313-4.909.34-.193 2.932-.779.79 2.927v.392l-3.597 3.59c-.555.556-.555 1.456 0 2.012.556.555 1.456.555 2.012 0l1.585-1.585v2.346c0 .785.636 1.42 1.42 1.42.785 0 1.421-.635 1.421-1.42v-2.346l1.58 1.585c.555.555 1.455.555 2.01 0 .556-.556.556-1.456 0-2.011l-3.59-3.591v-.745l.739-2.59 2.983.795.335.193 1.318 4.91c.124.497.507.89 1.002 1.025.495.136 1.024-.005 1.385-.37.362-.364.498-.895.357-1.389l-.568-2.165 2.034 1.177c.681.392 1.551.158 1.943-.523.393-.681.159-1.551-.522-1.943l-2.057-1.137 2.165-.568c.757-.204 1.206-.984 1.002-1.741-.203-.758-.983-1.207-1.741-1.003v-.04zm-13.068.205c-.681-.683-.681-1.789 0-2.472.683-.681 1.788-.681 2.471 0 .682.683.682 1.789 0 2.472-.68.666-1.768.666-2.448 0h-.023z"/>
                <path fill="url(#gsxljagy8c)" d="M10.29 28.233c10.538 0 19.082-8.541 19.085-19.08-.002-1.358-.146-2.712-.432-4.04C38.22 7.127 44.606 15.654 43.93 25.12c-.677 9.468-8.212 16.999-17.68 17.671-9.468.672-17.991-5.718-19.999-14.996 1.327.288 2.682.435 4.04.438z"/>
                <path fill="url(#itxcahsxjd)" d="M51.903 12.261c9.054 0 16.82 5.513 20.124 13.365l.206-.001c10.117 0 18.318 8.201 18.318 18.318S82.35 62.261 72.233 62.261c-.172 0-.344-.002-.515-.007l.004.007H32.017c-9.1 0-16.477-7.377-16.477-16.477 0-8.62 6.619-15.693 15.051-16.416 2.156-9.786 10.88-17.107 21.312-17.107z"/>
                <path fill="url(#cnaxgpjwfe)" d="M73.727 34.085c0 12.053-9.77 21.824-21.824 21.824-12.053 0-21.823-9.77-21.823-21.824 0-12.053 9.77-21.824 21.823-21.824s21.824 9.771 21.824 21.824z" opacity=".6"/>
                <circle cx="72.233" cy="43.943" r="18.318" fill="url(#t8jgxzyxqf)" opacity=".4"/>
            </g>
        </g>
    </g>
</svg>
