<svg xmlns="http://www.w3.org/2000/svg" xmlns:xlink="http://www.w3.org/1999/xlink" width="100" height="100" viewBox="0 0 100 100">
    <defs>
        <linearGradient id="d2ht6j1qba" x1="15.807%" x2="95.871%" y1="15.907%" y2="96.019%">
            <stop offset="0%" stop-color="#FFD800"/>
            <stop offset="100%" stop-color="#FFD800" stop-opacity="0"/>
        </linearGradient>
        <linearGradient id="cu2gfs5wfb" x1="-6.956%" x2="85.88%" y1="-6.956%" y2="85.88%">
            <stop offset="0%" stop-color="#FFCC14"/>
            <stop offset="100%" stop-color="#FFB90A"/>
        </linearGradient>
        <linearGradient id="k93y2u29mc" x1="11.475%" x2="73.892%" y1="8.102%" y2="75.917%">
            <stop offset="0%" stop-color="#C7DFFF"/>
            <stop offset="0%" stop-color="#C7DFFF"/>
            <stop offset="100%" stop-color="#A6CDFF"/>
        </linearGradient>
        <linearGradient id="se0gi96w6d" x1="23.785%" x2="85.56%" y1="102.996%" y2="170.436%">
            <stop offset="0%" stop-color="#C7DFFF"/>
            <stop offset="0%" stop-color="#C7DFFF"/>
            <stop offset="100%" stop-color="#A6CDFF"/>
        </linearGradient>
        <filter id="bf6m8utkme" width="158.4%" height="153%" x="-29.2%" y="-26.5%" filterUnits="objectBoundingBox">
            <feOffset in="SourceAlpha" result="shadowOffsetOuter1"/>
            <feGaussianBlur in="shadowOffsetOuter1" result="shadowBlurOuter1" stdDeviation="3"/>
            <feColorMatrix in="shadowBlurOuter1" values="0 0 0 0 0.621405118 0 0 0 0 0.215101772 0 0 0 0 0 0 0 0 0.3 0"/>
        </filter>
        <path id="tztkv73lof" d="M69.58 47.16l-5.591 1.5-.733-.427-2.137-2.21 2.483-2.489.387-.221 5.59 1.494c.845.181 1.682-.331 1.905-1.165.223-.834-.247-1.696-1.07-1.96l-2.46-.66 2.313-1.334c.775-.448 1.041-1.438.594-2.214-.447-.775-1.438-1.04-2.213-.593l-2.313 1.335.66-2.42c.192-.849-.319-1.698-1.159-1.924-.84-.226-1.708.252-1.967 1.083l-1.5 5.59-.733.427-3.034.761-.852-3.006v-.869l4.09-4.097c.504-.644.447-1.562-.131-2.14-.578-.578-1.496-.635-2.14-.132l-1.802 1.806v-2.67c0-.894-.725-1.62-1.62-1.62-.894 0-1.619.726-1.619 1.62v2.67l-1.8-1.806c-.645-.503-1.563-.446-2.142.132-.578.578-.634 1.496-.131 2.14l4.09 4.097v.443l-.914 3.41-3.006-.762-.733-.426-1.5-5.591c-.154-.558-.595-.992-1.155-1.137-.56-.146-1.156.019-1.563.431-.406.413-.561 1.011-.407 1.57l.66 2.46-2.319-1.336c-.502-.306-1.131-.315-1.643-.024-.511.29-.825.836-.819 1.424.006.588.331 1.127.848 1.407l2.324 1.313-2.466.659c-.83.258-1.308 1.127-1.082 1.967.226.84 1.075 1.35 1.923 1.158l5.602-1.494.381.221 2.46 2.472-2.13 2.216-.71.426-5.614-1.506c-.848-.193-1.697.318-1.923 1.158-.226.84.252 1.708 1.082 1.967l2.477.67-2.324 1.319c-.507.288-.822.825-.826 1.409-.005.583.303 1.125.806 1.42.504.296 1.126.3 1.634.012l2.318-1.336-.659 2.46c-.112.416-.055.86.16 1.234.213.371.567.642.982.75.861.231 1.748-.277 1.983-1.137l1.494-5.59.387-.222 3.34-.887.898 3.336v.443l-4.09 4.09c-.46.463-.598 1.156-.35 1.759s.834.998 1.486 1.003c.426-.003.833-.173 1.136-.472l1.801-1.806v2.625c0 .894.725 1.619 1.62 1.619.894 0 1.619-.725 1.619-1.62v-2.675l1.801 1.806c.645.503 1.563.446 2.14-.132.579-.578.635-1.496.133-2.14l-4.091-4.091v-.853l.835-2.943 3.41.904.386.221 1.5 5.591c.258.83 1.127 1.308 1.966 1.082.84-.226 1.352-1.075 1.159-1.923l-.66-2.46 2.336 1.364c.784.447 1.783.173 2.23-.611.447-.785.174-1.783-.611-2.23l-2.312-1.336 2.46-.664c.822-.264 1.292-1.126 1.07-1.96-.224-.834-1.061-1.347-1.905-1.165v.011zm-14.836.21c-.761-.764-.761-2 0-2.762.366-.369.864-.576 1.384-.576.52 0 1.017.207 1.383.576.762.763.762 1.998 0 2.761-.365.37-.862.578-1.382.58-.52 0-1.018-.206-1.385-.574v-.006z"/>
    </defs>
    <g fill="none" fill-rule="evenodd">
        <g fill-rule="nonzero">
            <g transform="translate(-747 -507) translate(747 507)">
                <path fill="url(#d2ht6j1qba)" d="M81.25 46.392v-.068c0-18.828-15.263-34.091-34.09-34.091-18.829 0-34.092 15.263-34.092 34.09v.569c.057 18.335 15.296 33.563 34.091 33.563 18.796 0 34.034-15.228 34.091-33.563v-.5z" opacity=".3"/>
                <circle cx="47.159" cy="46.324" r="28.71" fill="url(#cu2gfs5wfb)"/>
                <path fill="url(#k93y2u29mc)" d="M82.636 59.37v1.306l-1.136-.653c-.466-.27-1.02-.343-1.54-.203s-.964.48-1.233.947c-.27.466-.342 1.02-.202 1.54s.48.964.947 1.233l1.136.653-1.136.654c-.972.56-1.305 1.801-.745 2.772.56.972 1.802 1.305 2.773.745l1.136-.654v1.307c0 1.123.911 2.034 2.034 2.034.54 0 1.056-.214 1.437-.596.38-.382.593-.899.592-1.438V67.71l1.136.654c.63.409 1.435.436 2.093.072.657-.364 1.06-1.06 1.048-1.812-.012-.751-.438-1.435-1.107-1.777l-1.136-.654 1.136-.653c.67-.343 1.095-1.026 1.107-1.778.012-.751-.391-1.448-1.048-1.812-.658-.364-1.462-.336-2.093.073l-1.136.653V59.37c-.057-1.08-.95-1.926-2.031-1.926-1.082 0-1.974.846-2.032 1.926z"/>
                <path fill="url(#se0gi96w6d)" d="M74.84 75.09l-.653.376v-.756c0-.646-.524-1.17-1.17-1.17-.646 0-1.17.524-1.17 1.17v.756l-.654-.375c-.363-.24-.828-.258-1.208-.048-.38.21-.614.612-.606 1.047.008.434.256.828.644 1.024l.653.375-.653.38c-.27.155-.466.41-.545.71-.08.3-.038.619.119.887.324.558 1.037.748 1.596.426l.654-.375v.75c0 .646.524 1.17 1.17 1.17.646 0 1.17-.524 1.17-1.17v-.722l.654.375c.361.209.806.208 1.167 0 .36-.21.583-.595.582-1.012 0-.417-.223-.802-.584-1.01l-.648-.381.648-.375c.361-.208.584-.593.584-1.01 0-.417-.221-.802-.582-1.011-.36-.21-.806-.21-1.167-.002v-.028z" opacity=".8"/>
                <g>
                    <use fill="#000" filter="url(#bf6m8utkme)" xlink:href="#tztkv73lof"/>
                    <use fill="#FFF" xlink:href="#tztkv73lof"/>
                </g>
            </g>
        </g>
    </g>
</svg>
