<svg xmlns="http://www.w3.org/2000/svg" width="100" height="100" viewBox="0 0 100 100">
    <defs>
        <linearGradient id="mqzfrrem3a" x1="18.452%" x2="81.565%" y1="15.752%" y2="84.303%">
            <stop offset="0%" stop-color="#C7DFFF"/>
            <stop offset="0%" stop-color="#C7DFFF"/>
            <stop offset="100%" stop-color="#A6CDFF"/>
        </linearGradient>
        <linearGradient id="shkgnm2jjb" x1="35.749%" x2="65.913%" y1="35.724%" y2="65.932%">
            <stop offset="1%" stop-color="#FFD800" stop-opacity="0"/>
            <stop offset="100%" stop-color="#FFD800"/>
        </linearGradient>
        <linearGradient id="pfboj3ibac" x1="-6.956%" x2="85.88%" y1="-6.956%" y2="85.88%">
            <stop offset="0%" stop-color="#FFCC14"/>
            <stop offset="100%" stop-color="#FFB90A"/>
        </linearGradient>
        <linearGradient id="2zer35vkxd" x1="8.756%" x2="76.105%" y1="12.742%" y2="73.71%">
            <stop offset="0%" stop-color="#C7DFFF"/>
            <stop offset="0%" stop-color="#C7DFFF"/>
            <stop offset="100%" stop-color="#A6CDFF"/>
        </linearGradient>
        <linearGradient id="pexmegeo5e" x1="124.035%" x2="186.831%" y1="208.575%" y2="276.48%">
            <stop offset="0%" stop-color="#C7DFFF"/>
            <stop offset="0%" stop-color="#C7DFFF"/>
            <stop offset="100%" stop-color="#A6CDFF"/>
        </linearGradient>
        <linearGradient id="v3o3y7pqzf" x1="11.826%" x2="73.75%" y1="8.781%" y2="75.974%">
            <stop offset="0%" stop-color="#C7DFFF"/>
            <stop offset="0%" stop-color="#C7DFFF"/>
            <stop offset="100%" stop-color="#A6CDFF"/>
        </linearGradient>
    </defs>
    <g fill="none" fill-rule="evenodd">
        <g fill-rule="nonzero">
            <g transform="translate(-1432 -507) translate(1432 507)">
                <path fill="url(#mqzfrrem3a)" d="M33.91 31.915l-5.115 1.363-.67-.386-1.943-2.006 2.273-2.272.346-.2 5.114 1.364c.525.194 1.114.075 1.522-.308.408-.383.565-.964.405-1.5-.16-.536-.61-.936-1.16-1.032l-2.273-.603 2.114-1.221c.707-.408.95-1.313.542-2.02-.408-.708-1.312-.95-2.02-.543l-2.113 1.222.602-2.273c.132-.753-.332-1.483-1.07-1.682-.738-.2-1.506.198-1.77.915l-1.37 5.114-.67.386-2.79.693-.784-2.744v-.773l3.738-3.739c.374-.373.52-.917.383-1.428-.137-.51-.535-.908-1.046-1.045-.51-.137-1.054.009-1.428.383l-1.647 1.647v-2.443c0-.816-.662-1.477-1.478-1.477s-1.477.661-1.477 1.477v2.443l-1.648-1.647c-.577-.578-1.513-.578-2.09 0-.578.577-.578 1.513 0 2.09l3.738 3.74v.402l-.807 3.103-2.716-.682-.693-.386-1.37-5.114c-.264-.717-1.032-1.114-1.77-.915-.738.2-1.202.929-1.07 1.682l.608 2.273-2.114-1.222c-.701-.352-1.555-.097-1.949.583-.393.679-.188 1.547.466 1.98l2.114 1.221-2.273.602c-.55.097-1 .497-1.16 1.033-.16.536-.003 1.117.405 1.5.408.383.997.502 1.522.308l5.114-1.363.346.199 2.273 2.272-1.949 2.006-.67.386-5.114-1.363c-.525-.194-1.114-.074-1.522.308-.408.383-.565.964-.405 1.5.16.536.61.936 1.16 1.033l2.273.602-2.114 1.233c-.492.247-.807.747-.817 1.297-.01.551.285 1.062.768 1.328.483.265 1.073.241 1.532-.063l2.114-1.221-.608 2.273c-.194.524-.074 1.114.308 1.522.383.408.964.565 1.5.405.536-.16.936-.61 1.033-1.16l1.37-5.114.351-.205 3.057-.823.824 3.045v.403l-3.733 3.767c-.577.578-.577 1.514 0 2.091.577.578 1.514.578 2.091 0l1.648-1.647v2.397c0 .816.661 1.478 1.477 1.478.816 0 1.477-.662 1.477-1.478V42.46l1.648 1.648c.585.476 1.433.435 1.97-.094.536-.53.589-1.378.12-1.969l-3.738-3.738V37.5l.762-2.688 3.102.824.352.205 1.37 5.114C28.9 41.743 29.71 42.21 30.5 42c.788-.213 1.255-1.024 1.045-1.813l-.602-2.272 2.114 1.221c.707.408 1.612.165 2.02-.542.408-.708.165-1.612-.543-2.02l-2.114-1.222 2.273-.602c.551-.097 1-.497 1.16-1.033.16-.536.003-1.116-.405-1.5-.408-.382-.997-.502-1.522-.308l-.017.006zm-13.546.193c-.337-.335-.526-.79-.526-1.264 0-.475.19-.93.526-1.264.698-.694 1.824-.694 2.522 0 .337.334.526.79.526 1.264s-.19.93-.526 1.264c-.698.693-1.824.693-2.522 0z"/>
                <path fill="url(#shkgnm2jjb)" d="M90.017 52.324v-.051c0-18.828-15.263-34.091-34.09-34.091-18.829 0-34.092 15.263-34.092 34.09v.097c0 18.828 15.263 34.091 34.091 34.091 18.828 0 34.091-15.263 34.091-34.09v-.046z" opacity=".3"/>
                <circle cx="55.932" cy="52" r="28.71" fill="url(#pfboj3ibac)"/>
                <path fill="url(#2zer35vkxd)" d="M23.295 66.37l-.33.567-.329-.568c-.286-.49-.916-.658-1.409-.375-.49.285-.658.913-.375 1.404l.33.568h-.654c-.568 0-1.028.46-1.028 1.028 0 .568.46 1.029 1.028 1.029h.66l-.33.568c-.284.493-.116 1.122.375 1.409.494.283 1.124.113 1.409-.38l.33-.569.33.568c.283.493.913.662 1.405.378.493-.284.662-.913.378-1.406l-.335-.568h.665c.568 0 1.028-.46 1.028-1.029 0-.568-.46-1.028-1.028-1.028h-.665l.335-.568c.284-.495.114-1.125-.38-1.41-.495-.283-1.126-.113-1.41.381z" opacity=".8"/>
                <path fill="url(#pexmegeo5e)" d="M13.318 76.41l-.46.26v-.534c0-.22-.088-.43-.243-.584-.156-.155-.367-.241-.587-.24-.455 0-.823.37-.823.824v.529l-.46-.262c-.398-.227-.904-.09-1.131.307-.228.397-.09.903.306 1.13l.46.268-.46.267c-.193.108-.334.29-.39.504-.058.215-.025.443.09.632.108.194.29.335.504.392.214.056.442.024.632-.09l.46-.262v.529c.036.43.395.76.827.76.431 0 .79-.33.826-.76v-.535l.46.262c.256.158.577.164.838.017.262-.148.422-.426.42-.726-.003-.3-.17-.575-.434-.717l-.46-.267.46-.267c.265-.143.43-.418.434-.718.002-.3-.158-.578-.42-.725-.261-.148-.582-.141-.837.016l-.012-.01z" opacity=".7"/>
                <path fill="url(#v3o3y7pqzf)" d="M7.386 55.585l.95.568-.95.569c-.813.47-1.092 1.509-.625 2.323.47.813 1.51 1.093 2.324.625l.95-.568V60.2c0 .941.762 1.704 1.704 1.704.941 0 1.704-.763 1.704-1.704V59.09l.949.568c.392.226.857.288 1.294.17.437-.117.81-.403 1.036-.795.467-.814.188-1.854-.625-2.324l-.95-.568.95-.568c.571-.28.938-.857.952-1.494.014-.636-.329-1.227-.888-1.532-.559-.305-1.241-.273-1.769.083l-.949.568V52.09c0-.941-.763-1.705-1.704-1.705-.942 0-1.705.764-1.705 1.705v1.096l-.949-.568c-.528-.356-1.21-.388-1.77-.083-.558.305-.9.896-.887 1.533.014.637.381 1.213.953 1.493l.005.023z" opacity=".9"/>
            </g>
        </g>
    </g>
</svg>
