<svg xmlns="http://www.w3.org/2000/svg" width="100" height="100" viewBox="0 0 100 100">
    <defs>
        <linearGradient id="fbc5ba7a3a" x1="37.912%" x2="63.495%" y1="17.129%" y2="87.414%">
            <stop offset="0%" stop-color="#C7DFFF"/>
            <stop offset="0%" stop-color="#C7DFFF"/>
            <stop offset="100%" stop-color="#A6CDFF"/>
        </linearGradient>
        <linearGradient id="umgisvimbb" x1="13.581%" x2="91.002%" y1="21.14%" y2="82.212%">
            <stop offset="0%" stop-color="#C7DFFF"/>
            <stop offset="0%" stop-color="#C7DFFF"/>
            <stop offset="100%" stop-color="#A6CDFF"/>
        </linearGradient>
        <linearGradient id="qjj34sjcjc" x1="13.823%" x2="90.684%" y1="21.576%" y2="82.25%">
            <stop offset="0%" stop-color="#C7DFFF"/>
            <stop offset="0%" stop-color="#C7DFFF"/>
            <stop offset="100%" stop-color="#A6CDFF"/>
        </linearGradient>
        <linearGradient id="0l779j2vwd" x1="16.818%" x2="87.014%" y1="37.83%" y2="63.583%">
            <stop offset="0%" stop-color="#C7DFFF"/>
            <stop offset="0%" stop-color="#C7DFFF"/>
            <stop offset="100%" stop-color="#A6CDFF"/>
        </linearGradient>
        <linearGradient id="svv4ahqtbe" x1="33.475%" x2="68.46%" y1="29.052%" y2="73.32%">
            <stop offset="0%" stop-color="#C7DFFF"/>
            <stop offset="0%" stop-color="#C7DFFF"/>
            <stop offset="100%" stop-color="#A6CDFF"/>
        </linearGradient>
        <linearGradient id="2hi7ehphnf" x1=".022%" x2="105.796%" y1="-13.07%" y2="120.6%">
            <stop offset="0%" stop-color="#C7DFFF"/>
            <stop offset="0%" stop-color="#C7DFFF"/>
            <stop offset="100%" stop-color="#A6CDFF"/>
        </linearGradient>
        <linearGradient id="gp9cm07ovg" x1="8.721%" x2="75.49%" y1="13.306%" y2="73.237%">
            <stop offset="0%" stop-color="#C7DFFF"/>
            <stop offset="0%" stop-color="#C7DFFF"/>
            <stop offset="100%" stop-color="#A6CDFF"/>
        </linearGradient>
        <linearGradient id="stuzsxxteh" x1="-2.132%" x2="60.251%" y1="88.784%" y2="156.232%">
            <stop offset="0%" stop-color="#C7DFFF"/>
            <stop offset="0%" stop-color="#C7DFFF"/>
            <stop offset="100%" stop-color="#A6CDFF"/>
        </linearGradient>
        <linearGradient id="adw0bab2fi" x1="18.414%" x2="81.473%" y1="15.57%" y2="84.43%">
            <stop offset="0%" stop-color="#C7DFFF"/>
            <stop offset="0%" stop-color="#C7DFFF"/>
            <stop offset="100%" stop-color="#A6CDFF"/>
        </linearGradient>
    </defs>
    <g fill="none" fill-rule="evenodd">
        <g fill-rule="nonzero">
            <g>
                <g opacity=".8">
                    <path fill="url(#fbc5ba7a3a)" d="M8.193 5.33v9.443l-2.375 2.375c-.237.237-.33.583-.243.908.087.324.34.578.665.665.324.087.67-.006.908-.244l1.045-1.045v1.551c.038.491.448.87.94.87.493 0 .903-.379.94-.87v-1.551l1.046 1.045c.176.177.416.277.665.277.25 0 .489-.1.665-.277.362-.369.362-.96 0-1.33l-2.375-2.374V5.33l2.375-2.381c.367-.367.367-.963 0-1.33-.367-.367-.963-.367-1.33 0L10.074 2.67V1.136C10.1.783 9.928.444 9.626.26c-.302-.185-.683-.185-.985 0-.302.185-.475.524-.448.877v1.552L7.148 1.635c-.178-.174-.416-.272-.665-.272-.38-.002-.724.227-.87.578-.145.351-.065.756.205 1.024L8.193 5.33z" transform="translate(-747 -371) translate(747 371) translate(39.205 66.477)"/>
                    <path fill="url(#umgisvimbb)" d="M4.545 8.523l8.188 4.727.903 3.227c.16.472.658.74 1.139.61s.779-.61.68-1.098l-.387-1.432 1.335.784c.215.126.472.16.713.096.24-.066.444-.225.566-.443.125-.215.16-.472.096-.713-.064-.24-.221-.446-.437-.57L16 12.936l1.426-.38c.467-.162.73-.656.603-1.134-.127-.477-.6-.776-1.086-.684l-3.25.869-8.182-4.733-.869-3.244c-.159-.472-.658-.74-1.139-.61-.48.13-.778.61-.68 1.098l.382 1.426-1.341-.772c-.29-.168-.648-.168-.938 0-.29.168-.47.477-.47.813.001.335.18.644.47.812l1.347.778-1.432.38c-.24.067-.443.224-.568.438-.123.218-.158.474-.097.716.139.491.64.785 1.137.665l3.232-.852z" transform="translate(-747 -371) translate(747 371) translate(39.205 66.477)"/>
                    <path fill="url(#qjj34sjcjc)" d="M13.693 8.523L5.511 13.25l-.869 3.227c-.159.472-.658.74-1.139.61-.48-.13-.778-.61-.68-1.098l.382-1.432-1.341.784c-.445.213-.98.047-1.225-.38-.246-.428-.12-.973.287-1.25l1.347-.78-1.432-.38c-.344-.07-.62-.325-.719-.662-.097-.337 0-.7.254-.943s.62-.325.954-.213l3.215.87 8.188-4.728.903-3.244c.07-.344.325-.621.662-.719.338-.097.701 0 .944.254.243.253.325.62.213.953l-.387 1.426 1.347-.772c.449-.26 1.022-.105 1.281.343.259.45.105 1.023-.344 1.282l-1.34.778 1.425.38c.238.07.442.226.569.438.188.33.16.74-.07 1.042-.23.301-.62.435-.987.339l-3.256-.852z" transform="translate(-747 -371) translate(747 371) translate(39.205 66.477)"/>
                </g>
                <g opacity=".9">
                    <path fill="url(#0l779j2vwd)" d="M21.943 12.438H7.892L4.364 8.909c-.346-.382-.874-.542-1.374-.418-.5.125-.891.515-1.017 1.014-.126.5.033 1.029.413 1.376l1.557 1.556H1.636c-.772 0-1.397.626-1.397 1.398 0 .772.625 1.398 1.397 1.398h2.307L2.386 16.79c-.38.347-.54.875-.413 1.375.126.5.517.89 1.017 1.014.5.125 1.028-.036 1.374-.418l3.528-3.528h14.051l3.529 3.528c.55.503 1.4.484 1.928-.043s.55-1.375.049-1.928l-1.557-1.557h2.307c.772 0 1.398-.626 1.398-1.398 0-.772-.626-1.398-1.398-1.398h-2.307l1.557-1.556c.5-.553.48-1.402-.049-1.929-.528-.526-1.377-.545-1.928-.043l-3.529 3.528z" transform="translate(-747 -371) translate(747 371) translate(57.955 45.455)"/>
                    <path fill="url(#svv4ahqtbe)" d="M17.222 7.051l-6.995 12.17-4.824 1.29c-.498.115-.894.492-1.033.984-.138.492.003 1.02.369 1.378.365.358.897.487 1.386.337l2.125-.568-1.136 1.994c-.26.433-.267.973-.017 1.412.25.439.718.709 1.223.706.505-.003.97-.278 1.214-.72l1.136-1.994.569 2.125c.114.498.491.894.983 1.033.493.138 1.021-.003 1.379-.369.357-.365.486-.897.336-1.386l-1.295-4.824L19.67 8.45l4.824-1.29c.735-.21 1.165-.97.966-1.708-.199-.737-.953-1.178-1.693-.99l-2.125.567 1.136-1.994c.37-.667.137-1.507-.523-1.888-.66-.382-1.504-.163-1.897.49l-1.136 1.995-.569-2.125c-.094-.358-.327-.662-.647-.847-.491-.315-1.126-.292-1.592.057-.467.35-.668.952-.505 1.511l1.313 4.824z" transform="translate(-747 -371) translate(747 371) translate(57.955 45.455)"/>
                    <path fill="url(#2hi7ehphnf)" d="M17.222 20.62L10.227 8.448l-4.824-1.29c-.498-.114-.894-.492-1.033-.984-.138-.492.003-1.02.369-1.378.365-.357.897-.486 1.386-.337l2.125.568-1.136-1.994c-.37-.667-.137-1.507.523-1.888.66-.382 1.504-.163 1.897.49l1.136 1.995.569-2.125c.114-.499.491-.895.983-1.033.493-.139 1.021.002 1.379.368.357.366.486.897.336 1.386l-1.295 4.824 7.028 12.17 4.824 1.29c.735.21 1.165.97.966 1.708-.199.737-.953 1.179-1.693.991l-2.125-.568 1.136 1.994c.37.667.137 1.507-.523 1.889-.66.381-1.504.163-1.897-.49l-1.136-1.995-.569 2.125c-.094.357-.327.662-.647.846-.49.283-1.1.244-1.55-.099-.448-.343-.646-.923-.501-1.469l1.267-4.824z" transform="translate(-747 -371) translate(747 371) translate(57.955 45.455)"/>
                </g>
                <path fill="url(#gp9cm07ovg)" d="M78.761 30.188h-1.136l.568-.983c.235-.405.3-.886.179-1.338-.12-.452-.416-.838-.82-1.072-.405-.234-.887-.299-1.339-.178-.451.12-.837.416-1.071.82l-.568.99-.568-.99c-.509-.798-1.556-1.053-2.375-.58-.82.474-1.12 1.509-.682 2.348l.568.983h-1.136c-.973 0-1.762.788-1.762 1.76-.001.469.184.918.514 1.25.33.332.78.518 1.248.518h1.136l-.568.983c-.487.844-.197 1.923.648 2.409.844.486 1.922.196 2.409-.648l.568-.983.568.983c.315.545.896.881 1.526.881.629 0 1.21-.336 1.525-.88.315-.546.315-1.217 0-1.762l-.568-.983h1.136c.655.037 1.276-.29 1.614-.852.338-.561.338-1.263 0-1.825-.338-.56-.96-.889-1.614-.852z" transform="translate(-747 -371) translate(747 371)"/>
                <path fill="url(#stuzsxxteh)" d="M33.727 63.29l-.63.363v-.727c0-.627-.51-1.136-1.137-1.136s-1.136.509-1.136 1.136v.71l-.63-.363c-.532-.24-1.158-.04-1.451.464-.293.504-.157 1.148.314 1.49l.625.364-.625.364c-.536.313-.72.999-.415 1.54.314.535 1 .72 1.54.414l.63-.364v.728c0 .627.51 1.136 1.137 1.136s1.136-.509 1.136-1.136v-.728l.63.364c.532.24 1.158.04 1.451-.464.293-.504.158-1.148-.314-1.49l-.63-.364.63-.364c.396-.178.655-.566.668-1 .014-.434-.221-.837-.604-1.04-.384-.203-.85-.17-1.2.086l.011.017z" opacity=".8" transform="translate(-747 -371) translate(747 371)"/>
                <path fill="url(#adw0bab2fi)" d="M55.449 36.324l-7.722 2.062-1.011-.568-2.915-3.045 3.41-3.41.528-.3 7.699 2.062c.773.214 1.601-.004 2.169-.571.567-.567.786-1.396.572-2.169-.214-.773-.827-1.372-1.605-1.567l-3.41-.909 3.188-1.84c.699-.39 1.136-1.123 1.148-1.923.011-.8-.405-1.545-1.091-1.954-.687-.41-1.54-.423-2.239-.033L50.983 24l.909-3.41c.214-.772-.004-1.6-.571-2.168-.567-.568-1.396-.786-2.169-.572-.773.213-1.372.826-1.567 1.605l-2.062 7.721-1.012.568-4.17 1.063-1.182-4.137V23.5l5.636-5.636c.564-.564.784-1.385.578-2.154-.207-.77-.808-1.37-1.577-1.577-.77-.206-1.59.014-2.154.577l-2.483 2.483v-3.682c-.06-1.188-1.04-2.12-2.23-2.12s-2.17.932-2.23 2.12v3.682l-2.483-2.483c-.563-.563-1.384-.783-2.154-.577-.77.206-1.37.807-1.577 1.577-.206.77.014 1.59.578 2.154l5.636 5.636v.614l-1.261 4.676-4.091-1.029-1.012-.568-2.068-7.716c-.195-.778-.794-1.39-1.567-1.605-.773-.213-1.602.005-2.169.573-.567.567-.785 1.396-.57 2.169l.908 3.409-3.187-1.864c-1.061-.559-2.374-.18-2.974.858-.6 1.039-.273 2.365.74 3.006l3.188 1.84-3.409.91c-1.175.325-1.87 1.535-1.559 2.714.311 1.18 1.513 1.89 2.696 1.593l7.698-2.063.535.301 3.409 3.41-2.938 3.033-1.011.569-7.66-2.006c-1.182-.297-2.384.413-2.695 1.592-.31 1.18.384 2.39 1.56 2.715l3.408.909-3.187 1.84c-1.014.64-1.341 1.968-.741 3.006.6 1.038 1.913 1.417 2.974.858l3.187-1.84-.909 3.408c-.214.774.004 1.602.571 2.17.568.567 1.396.786 2.17.572.772-.214 1.371-.827 1.566-1.605l2.063-7.699.528-.307 4.597-1.221 1.238 4.59v.614l-5.636 5.636c-.635.64-.824 1.598-.479 2.43.346.832 1.157 1.376 2.058 1.377.591.002 1.158-.233 1.574-.653l2.483-2.483v3.682c.06 1.188 1.04 2.12 2.23 2.12s2.17-.932 2.23-2.12v-3.682l2.483 2.483c.564.563 1.385.783 2.154.577.77-.206 1.37-.807 1.577-1.577.206-.77-.014-1.59-.577-2.154l-5.636-5.636v-1.17l1.136-4.057 4.682 1.244.528.307 2.063 7.699c.195.778.793 1.391 1.567 1.605.773.214 1.601-.005 2.168-.572.567-.568.786-1.396.571-2.17l-.909-3.409 3.188 1.841c.69.398 1.54.398 2.23-.001s1.114-1.135 1.113-1.932c0-.797-.426-1.532-1.116-1.93l-3.187-1.841 3.409-.91c.778-.194 1.39-.793 1.605-1.566.213-.773-.005-1.602-.573-2.169-.567-.567-1.396-.785-2.169-.571h-.045zm-20.33.199c-.48-.48-.75-1.131-.75-1.81s.27-1.33.75-1.81c1-.993 2.614-.993 3.614 0 .48.48.75 1.131.75 1.81s-.27 1.33-.75 1.81c-1 .994-2.614.994-3.614 0z" transform="translate(-747 -371) translate(747 371)"/>
            </g>
        </g>
    </g>
</svg>
