<svg width="100" height="100" viewBox="0 0 100 100" xmlns="http://www.w3.org/2000/svg">
    <defs>
        <linearGradient x1="21.179%" y1="65.326%" x2="86.547%" y2="9.264%" id="m5iqejwq3a">
            <stop stop-color="#61ADFF" stop-opacity=".6" offset="0%"/>
            <stop stop-color="#61ADFF" stop-opacity=".6" offset="0%"/>
            <stop stop-color="#5DA9FF" stop-opacity=".73" offset="11%"/>
            <stop stop-color="#5AA6FF" stop-opacity=".83" offset="23%"/>
            <stop stop-color="#57A4FF" stop-opacity=".9" offset="36%"/>
            <stop stop-color="#55A2FF" stop-opacity=".96" offset="50%"/>
            <stop stop-color="#54A1FF" stop-opacity=".99" offset="68%"/>
            <stop stop-color="#54A1FF" offset="100%"/>
        </linearGradient>
        <linearGradient x1="89.982%" y1="89.957%" x2="45.044%" y2="45.017%" id="arlfrxj3rb">
            <stop stop-color="#5686E6" offset="0%"/>
            <stop stop-color="#7ABEF5" offset="100%"/>
        </linearGradient>
        <linearGradient x1="-24.662%" y1="10.31%" x2="62.751%" y2="64.585%" id="hyxiknvilc">
            <stop stop-color="#E9E9ED" offset="0%"/>
            <stop stop-color="#DEDFE3" offset="100%"/>
        </linearGradient>
        <linearGradient x1="7.433%" y1="7.406%" x2="50.395%" y2="50.381%" id="9eri9pstud">
            <stop stop-color="#FFF" offset="0%"/>
            <stop stop-color="#FFF" stop-opacity="0" offset="100%"/>
        </linearGradient>
        <linearGradient x1="7.173%" y1="7.173%" x2="39.43%" y2="39.43%" id="wvru4d9awe">
            <stop stop-color="#FFF" offset="0%"/>
            <stop stop-color="#FFF" stop-opacity="0" offset="100%"/>
        </linearGradient>
        <linearGradient x1="11.774%" y1="5.384%" x2="170.706%" y2="-84.791%" id="n1vuh0romf">
            <stop stop-color="#61ADFF" stop-opacity=".6" offset="0%"/>
            <stop stop-color="#61ADFF" stop-opacity=".6" offset="0%"/>
            <stop stop-color="#54A1FF" offset="100%"/>
        </linearGradient>
        <linearGradient x1="20.289%" y1="59.634%" x2="92.345%" y2=".946%" id="uvhr7qooxg">
            <stop stop-color="#61ADFF" stop-opacity=".6" offset="0%"/>
            <stop stop-color="#54A1FF" offset="100%"/>
        </linearGradient>
        <linearGradient x1="21.151%" y1="63.606%" x2="87.889%" y2="6.974%" id="uhjctsgd8h">
            <stop stop-color="#61ADFF" stop-opacity=".6" offset="0%"/>
            <stop stop-color="#61ADFF" stop-opacity=".6" offset="0%"/>
            <stop stop-color="#5DA9FF" stop-opacity=".73" offset="11%"/>
            <stop stop-color="#5AA6FF" stop-opacity=".83" offset="23%"/>
            <stop stop-color="#57A4FF" stop-opacity=".9" offset="36%"/>
            <stop stop-color="#55A2FF" stop-opacity=".96" offset="50%"/>
            <stop stop-color="#54A1FF" stop-opacity=".99" offset="68%"/>
            <stop stop-color="#54A1FF" offset="100%"/>
        </linearGradient>
        <linearGradient x1="22.829%" y1="90.671%" x2="61.107%" y2="11.04%" id="d1hbj1f3oi">
            <stop stop-color="#61ADFF" stop-opacity=".8" offset="0%"/>
            <stop stop-color="#54A1FF" offset="100%"/>
        </linearGradient>
    </defs>
    <g fill-rule="nonzero" fill="none">
        <path d="M56.216 56.798a1.705 1.705 0 0 1 2.993 1.63l-.05.092L41.72 88.327a1.705 1.705 0 0 1-2.992-1.63l.05-.092 17.437-29.807z" fill="url(#m5iqejwq3a)" opacity=".9"/>
        <path d="M11.497 31.739c11.732 0 21.243-9.51 21.247-21.242A21.508 21.508 0 0 0 32.263 6C42.59 8.24 49.699 17.732 48.945 28.273c-.753 10.541-9.14 18.925-19.681 19.673C18.724 48.694 9.235 41.58 7 31.252c1.478.32 2.985.483 4.497.487z" fill="url(#arlfrxj3rb)"/>
        <g transform="translate(21.311 15.364)">
            <path d="M54.117 12.756h-.196A20.815 20.815 0 0 0 32.863.085a20.824 20.824 0 0 0-18.453 16.24c-8.403.7-14.756 7.914-14.395 16.347.36 8.433 7.307 15.077 15.74 15.055h38.367c9.648 0 17.469-7.828 17.469-17.486 0-9.657-7.821-17.485-17.469-17.485h-.005z" fill="url(#hyxiknvilc)"/>
            <path d="M54.117 12.756h-.196A20.815 20.815 0 0 0 32.863.085a20.824 20.824 0 0 0-18.453 16.24c-8.403.7-14.756 7.914-14.395 16.347.36 8.433 7.307 15.077 15.74 15.055h38.367c9.648 0 17.469-7.828 17.469-17.486 0-9.657-7.821-17.485-17.469-17.485h-.005z" fill="#A3A5AA" opacity=".05"/>
            <path d="M55.682 21.023c0 11.61-9.412 21.022-21.023 21.022-11.61 0-21.023-9.412-21.023-21.022C13.636 9.413 23.05 0 34.66 0s21.023 9.412 21.023 21.023z" fill="url(#9eri9pstud)" opacity=".35"/>
            <circle fill="url(#wvru4d9awe)" opacity=".25" cx="53.977" cy="30.114" r="17.614"/>
        </g>
        <path d="M54.226 74.959a1.705 1.705 0 0 1 3.006 1.604l-.049.092-2.42 4.221a1.705 1.705 0 0 1-3.007-1.604l.05-.091 2.42-4.222z" fill="url(#n1vuh0romf)"/>
        <path d="M68.817 49.686a1.705 1.705 0 0 1 3.006 1.604l-.049.092-11.022 19.227a1.705 1.705 0 0 1-3.007-1.604l.049-.091 11.023-19.228z" fill="url(#uvhr7qooxg)"/>
        <path d="M51.745 49.37a1.705 1.705 0 0 1 3.002 1.612l-.05.092-14.863 25.744a1.705 1.705 0 0 1-3.001-1.613l.049-.091 14.863-25.745z" fill="url(#uhjctsgd8h)"/>
        <path d="M33.62 80.952a1.705 1.705 0 0 1 2.98 1.653l-.05.09-3.761 6.319a1.705 1.705 0 0 1-2.98-1.653l.05-.09 3.762-6.32z" fill="url(#d1hbj1f3oi)" opacity=".6"/>
    </g>
</svg>
