<svg xmlns="http://www.w3.org/2000/svg" xmlns:xlink="http://www.w3.org/1999/xlink" width="100" height="100" viewBox="0 0 100 100">
    <defs>
        <linearGradient id="pei8dya0fb" x1="90.517%" x2="45.021%" y1="90.489%" y2="45.004%">
            <stop offset="0%" stop-color="#7FAAFF"/>
            <stop offset="100%" stop-color="#7ABEF5"/>
        </linearGradient>
        <linearGradient id="6niajbktof" x1="12.644%" x2="73.188%" y1="9.508%" y2="76.295%">
            <stop offset="0%" stop-color="#C7DFFF"/>
            <stop offset="0%" stop-color="#C7DFFF"/>
            <stop offset="100%" stop-color="#A6CDFF"/>
        </linearGradient>
        <linearGradient id="6rfrc2wvxg" x1="11.316%" x2="71.39%" y1="127.086%" y2="193.775%">
            <stop offset="0%" stop-color="#C7DFFF"/>
            <stop offset="0%" stop-color="#C7DFFF"/>
            <stop offset="100%" stop-color="#A6CDFF"/>
        </linearGradient>
        <linearGradient id="v9huipu46h" x1="7.783%" x2="92.217%" y1="17.213%" y2="100%">
            <stop offset="0%" stop-color="#D9EAFF"/>
            <stop offset="100%" stop-color="#C5DDFF"/>
        </linearGradient>
        <path id="to80385zxa" d="M6.653 38.068c9.503.004 18.496-4.293 24.463-11.688C37.083 18.985 39.382 9.287 37.369 0c15.288 3.307 25.818 17.353 24.707 32.955-1.112 15.602-13.526 28.012-29.129 29.12C17.345 63.18 3.303 52.646 0 37.357c2.186.471 4.417.71 6.653.71z"/>
        <path id="e818o1zape" d="M74.824 31.114l-6.12 1.647-.806-.466-2.335-2.409 2.721-2.727.42-.244 6.12 1.642c.63.232 1.337.089 1.827-.37.49-.46.677-1.156.485-1.8-.191-.643-.73-1.123-1.392-1.24l-2.699-.72 2.535-1.467c.57-.305.93-.897.937-1.544.007-.648-.34-1.247-.904-1.565-.564-.317-1.257-.301-1.806.041l-2.534 1.46.721-2.699c.235-.63.093-1.34-.368-1.831-.461-.491-1.16-.679-1.805-.484-.644.194-1.123.737-1.236 1.4l-1.653 6.103-.807.46-3.318.835-.92-3.29v-.931l4.482-4.483c.654-.698.636-1.79-.04-2.466-.676-.676-1.767-.694-2.465-.04l-1.978 1.972v-2.926c0-.98-.793-1.773-1.772-1.773-.98 0-1.773.794-1.773 1.773v2.926l-1.972-1.972c-.447-.448-1.1-.624-1.713-.46-.612.162-1.09.64-1.255 1.252-.165.612.01 1.265.457 1.714l4.483 4.483v.483l-1 3.721-3.256-.818-.807-.46-1.636-6.125c-.112-.664-.591-1.207-1.236-1.401-.645-.195-1.344-.007-1.805.484-.46.491-.603 1.2-.368 1.832l.722 2.699-2.535-1.46c-.549-.343-1.241-.359-1.806-.041-.564.317-.91.917-.904 1.564.007.647.367 1.24.938 1.544l2.534 1.466-2.739.722c-.857.32-1.33 1.238-1.093 2.12.237.884 1.106 1.442 2.008 1.29l6.125-1.643.42.244 2.722 2.728-2.335 2.409-.807.466-6.125-1.625c-.631-.235-1.34-.093-1.832.368-.49.46-.678 1.16-.484 1.805.194.644.737 1.123 1.401 1.236l2.699.721-2.534 1.495c-.849.49-1.14 1.574-.65 2.423.489.849 1.574 1.14 2.423.65l2.534-1.465-.722 2.698c-.123.454-.06.938.174 1.345.235.408.622.705 1.076.826.455.123.94.06 1.35-.176.407-.236.705-.624.826-1.08l1.637-6.12.42-.243 3.665-.983.983 3.653v.483l-4.483 4.483c-.692.693-.69 1.817.003 2.508.693.692 1.816.691 2.508-.002l1.972-1.972v2.926c0 .98.794 1.773 1.773 1.773.979 0 1.772-.794 1.772-1.773v-2.926l1.978 1.972c.698.654 1.789.636 2.465-.04.676-.677.694-1.768.04-2.466l-4.466-4.483v-.926l.92-3.233 3.7 1.011.426.245 1.636 6.119c.184.694.768 1.21 1.48 1.304.713.095 1.412-.25 1.77-.872.237-.407.3-.893.176-1.347l-.721-2.699 2.545 1.45c.835.39 1.829.076 2.288-.723.46-.798.23-1.816-.526-2.34l-2.535-1.466 2.7-.722c.66-.116 1.2-.596 1.391-1.24.192-.643.004-1.34-.485-1.799-.49-.459-1.197-.602-1.827-.37v-.028zm-16.244.233c-.836-.837-.836-2.192 0-3.029.836-.836 2.192-.836 3.028 0 .836.837.836 2.192 0 3.029-.836.836-2.192.836-3.028 0z"/>
        <filter id="hr0em1rj5d" width="187.6%" height="180.5%" x="-43.8%" y="-40.3%" filterUnits="objectBoundingBox">
            <feOffset in="SourceAlpha" result="shadowOffsetOuter1"/>
            <feGaussianBlur in="shadowOffsetOuter1" result="shadowBlurOuter1" stdDeviation="5"/>
            <feComposite in="shadowBlurOuter1" in2="SourceAlpha" operator="out" result="shadowBlurOuter1"/>
            <feColorMatrix in="shadowBlurOuter1" values="0 0 0 0 0 0 0 0 0 0 0 0 0 0 0 0 0 0 0.2 0"/>
        </filter>
    </defs>
    <g fill="none" fill-rule="evenodd">
        <g>
            <g>
                <g>
                    <g transform="translate(-610 -643) translate(610 643) translate(9.09 11.932) translate(.045 .193)">
                        <mask id="1lpq8xnbrc" fill="#fff">
                            <use xlink:href="#to80385zxa"/>
                        </mask>
                        <use fill="url(#pei8dya0fb)" fill-rule="nonzero" xlink:href="#to80385zxa"/>
                        <g fill-rule="nonzero" mask="url(#1lpq8xnbrc)">
                            <use fill="#000" filter="url(#hr0em1rj5d)" xlink:href="#e818o1zape"/>
                            <use fill="#FFF" fill-opacity="0" xlink:href="#e818o1zape"/>
                        </g>
                    </g>
                    <path fill="url(#6niajbktof)" fill-rule="nonzero" d="M74.011 52.034v1.307l-1.136-.654c-.466-.27-1.02-.343-1.54-.205-.52.139-.963.478-1.233.944-.561.973-.228 2.217.745 2.779l1.136.653-1.136.653c-.972.56-1.305 1.802-.745 2.773.56.971 1.802 1.305 2.773.744l1.136-.653v1.307c0 .539.215 1.056.596 1.436.382.38.9.594 1.438.592 1.12 0 2.029-.908 2.029-2.028v-1.307l1.136.653c.63.41 1.435.437 2.093.073.657-.364 1.06-1.06 1.048-1.812-.012-.752-.438-1.435-1.107-1.778l-1.136-.653 1.136-.653c.67-.343 1.095-1.026 1.107-1.778.012-.751-.391-1.448-1.048-1.812-.658-.364-1.462-.336-2.093.072l-1.136.654v-1.307c.04-.751-.339-1.463-.983-1.85-.645-.388-1.451-.388-2.096 0-.645.387-1.023 1.099-.984 1.85z" transform="translate(-610 -643) translate(610 643) translate(9.09 11.932)"/>
                    <path fill="url(#6rfrc2wvxg)" fill-rule="nonzero" d="M65.386 67.193l-.653.38v-.755c0-.646-.524-1.17-1.17-1.17-.31 0-.608.123-.826.343-.219.22-.34.517-.34.827v.756l-.653-.38c-.56-.324-1.276-.132-1.6.428-.322.56-.13 1.276.43 1.6l.653.375-.653.375c-.558.324-.748 1.037-.426 1.596.148.276.403.479.705.56.302.082.625.036.891-.128l.654-.38v.755c-.03.437.185.854.559 1.081.374.228.843.228 1.217 0 .374-.227.59-.644.559-1.081v-.756l.653.381c.363.21.81.209 1.171 0 .363-.21.586-.596.586-1.014 0-.419-.224-.805-.586-1.014l-.654-.375.654-.375c.56-.324.752-1.04.429-1.6s-1.04-.752-1.6-.429z" opacity=".8" transform="translate(-610 -643) translate(610 643) translate(9.09 11.932)"/>
                    <path fill="url(#v9huipu46h)" fill-rule="nonzero" d="M74.87 31.307l-6.12 1.648-.807-.466-2.335-2.41 2.722-2.727.42-.244 6.12 1.642c.63.232 1.336.09 1.826-.37.49-.46.678-1.156.486-1.8-.192-.643-.73-1.123-1.392-1.24l-2.7-.72 2.535-1.467c.571-.305.93-.897.937-1.544.007-.647-.34-1.247-.903-1.564-.565-.318-1.257-.302-1.807.04l-2.534 1.46.722-2.698c.235-.631.092-1.341-.369-1.832-.46-.491-1.16-.679-1.804-.484-.645.194-1.124.737-1.236 1.4l-1.654 6.103-.807.46-3.318.836-.92-3.29v-.932l4.483-4.483c.654-.698.636-1.79-.04-2.465-.677-.677-1.768-.695-2.466-.04l-1.977 1.97v-2.925c0-.98-.794-1.773-1.773-1.773-.979 0-1.773.794-1.773 1.773v2.926l-1.971-1.972c-.448-.448-1.1-.624-1.713-.46-.612.163-1.091.64-1.256 1.252-.164.612.01 1.265.457 1.714l4.483 4.483v.483l-1 3.721-3.255-.818-.807-.46-1.636-6.125c-.113-.664-.592-1.207-1.237-1.401-.644-.194-1.343-.007-1.804.484-.46.491-.604 1.2-.369 1.832L49 21.523l-2.534-1.46c-.55-.343-1.242-.358-1.806-.041-.565.317-.911.917-.904 1.564.007.648.366 1.24.937 1.545l2.534 1.466-2.738.721c-.857.32-1.33 1.238-1.094 2.12.237.884 1.107 1.442 2.008 1.29l6.125-1.643.42.245 2.722 2.727-2.335 2.409-.807.466-6.125-1.625c-.63-.235-1.34-.092-1.831.368-.491.461-.679 1.16-.484 1.805.194.645.737 1.123 1.4 1.236l2.7.721-2.535 1.495c-.848.49-1.14 1.574-.65 2.423.49.849 1.574 1.14 2.423.65l2.534-1.465-.721 2.699c-.124.453-.06.937.174 1.345.234.407.621.704 1.076.825.455.123.94.06 1.349-.176.408-.235.706-.624.827-1.08l1.636-6.119.42-.244 3.665-.983.983 3.653v.483l-4.483 4.483c-.692.694-.69 1.817.003 2.509.694.692 1.817.69 2.509-.003l1.971-1.972v2.926c0 .98.794 1.773 1.773 1.773.98 0 1.773-.794 1.773-1.773V43.96l1.977 1.972c.698.654 1.79.636 2.466-.04.676-.677.694-1.768.04-2.466l-4.466-4.483v-.926l.92-3.233 3.7 1.011.425.245 1.637 6.12c.183.694.768 1.209 1.48 1.303.712.095 1.411-.25 1.77-.872.237-.407.3-.892.176-1.347l-.722-2.699 2.546 1.45c.834.39 1.828.076 2.288-.722.46-.799.23-1.816-.527-2.341l-2.534-1.466 2.699-.722c.661-.116 1.2-.596 1.392-1.24.192-.642.004-1.34-.486-1.798-.49-.46-1.197-.603-1.827-.37v-.03zm-16.245.233c-.836-.837-.836-2.192 0-3.029.836-.836 2.192-.836 3.028 0 .836.837.836 2.192 0 3.029-.836.836-2.192.836-3.028 0z" transform="translate(-610 -643) translate(610 643) translate(9.09 11.932)"/>
                </g>
            </g>
        </g>
    </g>
</svg>
