<svg xmlns="http://www.w3.org/2000/svg" width="100" height="100" viewBox="0 0 100 100">
    <defs>
        <linearGradient id="7vtzzrpqia" x1="4.484%" x2="74.663%" y1="7.737%" y2="73.044%">
            <stop offset="0%" stop-color="#C7DFFF"/>
            <stop offset="0%" stop-color="#C7DFFF"/>
            <stop offset="100%" stop-color="#A6CDFF"/>
        </linearGradient>
        <linearGradient id="788p2r220b" x1="12.565%" x2="73.647%" y1="8.76%" y2="76.132%">
            <stop offset="0%" stop-color="#C7DFFF"/>
            <stop offset="0%" stop-color="#C7DFFF"/>
            <stop offset="100%" stop-color="#A6CDFF"/>
        </linearGradient>
        <linearGradient id="mrxa1funqc" x1="12.425%" x2="73.553%" y1="9.567%" y2="76.965%">
            <stop offset="0%" stop-color="#C7DFFF"/>
            <stop offset="0%" stop-color="#C7DFFF"/>
            <stop offset="100%" stop-color="#A6CDFF"/>
        </linearGradient>
        <linearGradient id="gwnagk063d" x1="50%" x2="50%" y1="-5.103%" y2="105.103%">
            <stop offset="0%" stop-color="#A6CDFF"/>
            <stop offset="100%" stop-color="#A6CDFF" stop-opacity=".8"/>
        </linearGradient>
        <linearGradient id="490smsbcie" x1="50%" x2="50%" y1="-10.206%" y2="110.206%">
            <stop offset="0%" stop-color="#A6CDFF"/>
            <stop offset="100%" stop-color="#A6CDFF" stop-opacity=".8"/>
        </linearGradient>
        <linearGradient id="4d1kulmz4f" x1="50%" x2="50%" y1="-12.393%" y2="112.393%">
            <stop offset="0%" stop-color="#A6CDFF"/>
            <stop offset="100%" stop-color="#A6CDFF" stop-opacity=".8"/>
        </linearGradient>
        <linearGradient id="dumlqhyjfg" x1="50%" x2="50%" y1="-8.07%" y2="108.07%">
            <stop offset="0%" stop-color="#A6CDFF"/>
            <stop offset="100%" stop-color="#A6CDFF" stop-opacity=".8"/>
        </linearGradient>
        <linearGradient id="98yf4zznsh" x1="37.641%" x2="63.798%" y1="16.622%" y2="87.243%">
            <stop offset="0%" stop-color="#B8D6FF"/>
            <stop offset="98%" stop-color="#A6CDFF"/>
            <stop offset="100%" stop-color="#A6CDFF"/>
        </linearGradient>
        <linearGradient id="focf6g6g4i" x1="13.562%" x2="90.676%" y1="21.053%" y2="82.273%">
            <stop offset="0%" stop-color="#B8D6FF"/>
            <stop offset="98%" stop-color="#A6CDFF"/>
            <stop offset="100%" stop-color="#A6CDFF"/>
        </linearGradient>
        <linearGradient id="52p4293k9j" x1="-4664.444%" x2="-4741.553%" y1="-5773.969%" y2="-5835.2%">
            <stop offset="0%" stop-color="#B8D6FF"/>
            <stop offset="98%" stop-color="#A6CDFF"/>
            <stop offset="100%" stop-color="#A6CDFF"/>
        </linearGradient>
    </defs>
    <g fill="none" fill-rule="evenodd">
        <g fill-rule="nonzero">
            <g>
                <path fill="url(#7vtzzrpqia)" d="M32.295 59.903h-1.488l.744-1.29c.305-.533.385-1.167.221-1.76-.163-.592-.555-1.096-1.09-1.398-1.107-.636-2.519-.257-3.16.846l-.744 1.29-.744-1.29c-.363-.805-1.153-1.332-2.036-1.36-.882-.027-1.703.45-2.116 1.23-.413.781-.345 1.729.175 2.443l.744 1.29h-1.488c-.614 0-1.202.243-1.636.677-.433.433-.677 1.022-.677 1.635 0 1.277 1.035 2.312 2.313 2.312H22.8l-.744 1.29c-.497.714-.55 1.647-.138 2.412.412.766 1.22 1.235 2.09 1.213.87-.023 1.652-.532 2.025-1.318l.744-1.29.745 1.29c.658 1.06 2.037 1.406 3.118.784 1.081-.623 1.473-1.99.887-3.09l-.744-1.29h1.489c1.277 0 2.312-1.036 2.312-2.313 0-1.277-1.035-2.313-2.312-2.313h.022z" opacity=".8" transform="translate(-884 -371) translate(884 371)"/>
                <path fill="url(#788p2r220b)" d="M81.21 53.153l-.954-.568.954-.568c.395-.226.684-.6.801-1.04.117-.44.054-.908-.176-1.3-.226-.394-.6-.682-1.037-.799-.439-.117-.906-.055-1.298.173l-.955.568v-1.085c0-.941-.763-1.704-1.704-1.704s-1.705.763-1.705 1.704v1.102l-.954-.568c-.393-.23-.861-.293-1.301-.176-.44.118-.814.406-1.04.801-.23.394-.292.863-.174 1.302.119.44.409.814.805 1.04l.954.567-.954.568c-.82.471-1.102 1.517-.631 2.336.47.819 1.516 1.101 2.335.63l.955-.568v1.102c0 .942.763 1.705 1.704 1.705.942 0 1.705-.763 1.705-1.705v-1.102l.954.568c.82.471 1.865.189 2.336-.63.47-.82.188-1.865-.631-2.336l.011-.017z" opacity=".8" transform="translate(-884 -371) translate(884 371)"/>
                <path fill="url(#mrxa1funqc)" d="M47.608 23.824l-1.017-.585 1.006-.569c.422-.234.734-.627.865-1.093.131-.465.071-.963-.167-1.384-.238-.415-.633-.718-1.096-.842-.462-.123-.955-.058-1.37.183l-1.005.568v-1.136c.037-.669-.298-1.303-.872-1.649-.573-.346-1.291-.346-1.865 0-.573.346-.909.98-.871 1.649v1.136l-1.006-.568c-.414-.24-.907-.306-1.37-.183-.462.124-.857.427-1.096.842-.24.414-.306.907-.182 1.37.123.463.426.857.841 1.096l1.006.568-1.006.568c-.812.522-1.07 1.59-.588 2.425.483.836 1.538 1.144 2.395.7l1.006-.568v1.165c.054.957.845 1.706 1.804 1.706.958 0 1.75-.749 1.804-1.706v-1.153l1.006.568c.558.322 1.245.321 1.803-.002.558-.322.901-.918.9-1.562 0-.644-.344-1.24-.902-1.561l-.023.017z" transform="translate(-884 -371) translate(884 371)"/>
                <path fill="url(#gwnagk063d)" d="M60.226 9.676c1.052 0 1.913.823 1.97 1.862l.003.108.034 38.636c0 1.09-.881 1.973-1.97 1.974-1.052 0-1.913-.823-1.97-1.862l-.003-.108-.034-38.637c-.001-1.088.88-1.972 1.97-1.973z" transform="translate(-884 -371) translate(884 371)"/>
                <path fill="url(#490smsbcie)" d="M43.182 36.38c1.052 0 1.912.826 1.968 1.864l.003.108V57.67c0 1.09-.882 1.972-1.971 1.972-1.053 0-1.913-.825-1.969-1.863l-.003-.109V38.352c0-1.089.883-1.971 1.972-1.971z" transform="translate(-884 -371) translate(884 371)"/>
                <path fill="url(#4d1kulmz4f)" d="M77.273 23.313c1.052 0 1.912.824 1.968 1.863l.003.108v15.91c0 1.088-.882 1.97-1.971 1.97-1.053 0-1.913-.824-1.969-1.863l-.003-.108V25.284c0-1.089.883-1.971 1.972-1.971z" transform="translate(-884 -371) translate(884 371)"/>
                <path fill="url(#dumlqhyjfg)" d="M27.273 22.176c1.052 0 1.912.825 1.968 1.864l.003.108V48.58c0 1.088-.882 1.971-1.971 1.971-1.053 0-1.913-.825-1.969-1.863l-.003-.108V24.148c0-1.09.883-1.972 1.972-1.972z" transform="translate(-884 -371) translate(884 371)"/>
                <g opacity=".9">
                    <path fill="url(#98yf4zznsh)" d="M11.494 7.432V20.59l-3.306 3.312c-.33.331-.459.813-.337 1.264.122.451.475.803.926.923.452.12.933-.01 1.263-.34l1.454-1.455v2.16c.046.69.619 1.226 1.31 1.226.691 0 1.264-.537 1.31-1.226v-2.16l1.454 1.455c.51.511 1.338.513 1.85.003.511-.51.512-1.338.002-1.85l-3.306-3.312V7.43l3.306-3.306c.368-.323.526-.823.41-1.298-.117-.476-.488-.847-.963-.963-.476-.116-.976.041-1.299.409l-1.454 1.46V1.568c-.046-.69-.619-1.226-1.31-1.226-.691 0-1.264.536-1.31 1.226v2.165l-1.454-1.46c-.323-.368-.824-.525-1.299-.409-.475.116-.846.487-.962.963-.117.475.04.975.409 1.298l3.306 3.307z" transform="translate(-884 -371) translate(884 371) translate(47.16 56.25)"/>
                    <path fill="url(#focf6g6g4i)" d="M6.449 11.858l11.398 6.58 1.215 4.545c.121.452.474.805.925.926.452.121.934-.008 1.265-.338.33-.33.46-.813.339-1.264l-.534-1.994 1.87 1.085c.405.233.905.232 1.31-.003.405-.234.654-.668.653-1.136 0-.468-.251-.9-.657-1.134l-1.87-1.08 1.99-.534c.697-.186 1.112-.904.925-1.602-.186-.698-.904-1.113-1.602-.926l-4.545 1.21L7.76 9.591l-1.21-4.546c-.122-.451-.475-.804-.927-.924-.452-.12-.934.01-1.264.341-.33.331-.46.814-.337 1.265l.534 1.989-1.875-1.08c-.628-.36-1.43-.144-1.79.483-.36.628-.145 1.43.483 1.79l1.87 1.08-1.99.534c-.334.09-.62.308-.795.608-.171.301-.218.658-.13.994.085.339.303.63.604.806.3.177.66.227.998.137l4.517-1.21z" transform="translate(-884 -371) translate(884 371) translate(47.16 56.25)"/>
                    <path fill="url(#52p4293k9j)" d="M19.16 11.858L7.76 18.438l-1.21 4.545c-.12.452-.473.805-.925.926-.451.121-.933-.008-1.264-.338-.33-.33-.46-.813-.34-1.264l.523-2.023L2.67 21.37c-.627.361-1.428.145-1.79-.483-.36-.627-.144-1.429.484-1.79l1.869-1.079-1.989-.534c-.698-.187-1.113-.904-.926-1.602.187-.699.904-1.113 1.602-.926l4.518 1.21 11.397-6.58 1.216-4.545c.188-.698.907-1.112 1.605-.924.698.189 1.112.907.924 1.606l-.535 1.988 1.87-1.08c.627-.36 1.429-.144 1.79.484.36.627.144 1.429-.483 1.79l-1.87 1.079 1.989.534c.335.09.622.308.795.609.174.3.221.658.131.993-.09.336-.308.622-.609.796-.3.174-.658.22-.993.13l-4.506-1.187z" transform="translate(-884 -371) translate(884 371) translate(47.16 56.25)"/>
                </g>
            </g>
        </g>
    </g>
</svg>
