<svg xmlns="http://www.w3.org/2000/svg" width="100" height="100" viewBox="0 0 100 100">
    <defs>
        <linearGradient id="yj7dgayyta" x1="6.475%" x2="95.853%" y1="37.881%" y2="108.38%">
            <stop offset="0%" stop-color="#C7DFFF"/>
            <stop offset="0%" stop-color="#C7DFFF"/>
            <stop offset="100%" stop-color="#A6CDFF"/>
        </linearGradient>
        <linearGradient id="54sylkjcrb" x1="-6982.308%" x2="-6998.57%" y1="-370.167%" y2="-322.019%">
            <stop offset="0%" stop-color="#C7DFFF"/>
            <stop offset="0%" stop-color="#C7DFFF"/>
            <stop offset="100%" stop-color="#A6CDFF"/>
        </linearGradient>
        <linearGradient id="qnu6phkfuc" x1="-2284.672%" x2="-2298.846%" y1="-473.88%" y2="-329.369%">
            <stop offset="0%" stop-color="#C7DFFF"/>
            <stop offset="0%" stop-color="#C7DFFF"/>
            <stop offset="100%" stop-color="#A6CDFF"/>
        </linearGradient>
        <linearGradient id="9h4aslvhhd" x1="-5.738%" x2="56.353%" y1="55.837%" y2="123.1%">
            <stop offset="0%" stop-color="#C7DFFF"/>
            <stop offset="0%" stop-color="#C7DFFF"/>
            <stop offset="100%" stop-color="#A6CDFF"/>
        </linearGradient>
        <linearGradient id="5bvgu7czce" x1="12.27%" x2="79.112%" y1="10.73%" y2="72.547%">
            <stop offset="0%" stop-color="#C7DFFF"/>
            <stop offset="0%" stop-color="#C7DFFF"/>
            <stop offset="100%" stop-color="#A6CDFF"/>
        </linearGradient>
        <linearGradient id="2k096hy59f" x1="-3.759%" x2="56.481%" y1="77.67%" y2="144.416%">
            <stop offset="0%" stop-color="#C7DFFF"/>
            <stop offset="0%" stop-color="#C7DFFF"/>
            <stop offset="100%" stop-color="#A6CDFF"/>
        </linearGradient>
        <linearGradient id="2r6m7htdsg" x1="-10.348%" x2="51.414%" y1="99.45%" y2="166.804%">
            <stop offset="0%" stop-color="#C7DFFF"/>
            <stop offset="0%" stop-color="#C7DFFF"/>
            <stop offset="100%" stop-color="#A6CDFF"/>
        </linearGradient>
        <linearGradient id="rb4r83gtrh" x1="-4.355%" x2="56.893%" y1="73.226%" y2="140.624%">
            <stop offset="0%" stop-color="#C7DFFF"/>
            <stop offset="0%" stop-color="#C7DFFF"/>
            <stop offset="100%" stop-color="#A6CDFF"/>
        </linearGradient>
        <linearGradient id="ooc3lsds5i" x1="9.669%" x2="75.568%" y1="14.429%" y2="72.637%">
            <stop offset="0%" stop-color="#C7DFFF"/>
            <stop offset="0%" stop-color="#C7DFFF"/>
            <stop offset="100%" stop-color="#A6CDFF"/>
        </linearGradient>
        <linearGradient id="pz0cwbiabj" x1="18.349%" x2="81.668%" y1="15.56%" y2="84.411%">
            <stop offset="0%" stop-color="#C7DFFF"/>
            <stop offset="0%" stop-color="#C7DFFF"/>
            <stop offset="100%" stop-color="#A6CDFF"/>
        </linearGradient>
    </defs>
    <g fill="none" fill-rule="evenodd">
        <g fill-rule="nonzero">
            <g>
                <g opacity=".9">
                    <path fill="url(#yj7dgayyta)" d="M18.62 15.767L7.533 9.364 6.352 4.972c-.117-.44-.46-.783-.9-.9-.44-.119-.909.007-1.23.329-.322.321-.448.79-.33 1.23l.523 1.931-1.818-1.045c-.394-.227-.88-.227-1.273 0-.394.227-.637.648-.637 1.102 0 .455.243.875.637 1.103l1.818 1.045-1.937.523c-.44.118-.783.46-.901.9s.008.909.33 1.23c.321.322.79.448 1.23.33l4.386-1.182 11.085 6.404 1.176 4.392c.118.44.461.782.9.9.44.118.91-.008 1.23-.33.323-.321.448-.79.33-1.23l-.516-1.931 1.818 1.05c.61.352 1.39.142 1.741-.468.352-.61.142-1.39-.469-1.741l-1.818-1.046 1.932-.523c.323-.078.602-.283.773-.568.171-.291.218-.64.13-.966-.086-.327-.3-.607-.593-.776-.293-.17-.642-.215-.969-.127l-4.38 1.159z" transform="translate(-1158 -371) translate(1158 371) translate(60.227 28.41)"/>
                    <path fill="url(#54sylkjcrb)" d="M17.347 9.364L6.25 15.767l-4.398-1.182c-.67-.153-1.339.253-1.514.917-.175.664.209 1.347.867 1.543l1.937.523-1.818 1.046c-.61.351-.82 1.13-.469 1.741.352.61 1.131.82 1.742.469l1.818-1.051-.523 1.932c-.118.439.008.908.33 1.23.321.321.79.447 1.23.33.44-.119.783-.462.9-.901l1.182-4.392 11.085-6.404 4.392 1.182c.44.118.909-.008 1.23-.33.322-.321.448-.79.33-1.23-.118-.44-.461-.782-.9-.9l-1.932-.523 1.818-1.045c.394-.228.636-.648.636-1.103 0-.454-.242-.875-.636-1.102-.394-.227-.88-.227-1.273 0l-1.83 1.045.518-1.931c.177-.68-.226-1.377-.904-1.563-.326-.086-.673-.04-.965.13-.292.169-.505.447-.592.774l-1.164 4.392z" transform="translate(-1158 -371) translate(1158 371) translate(60.227 28.41)"/>
                    <path fill="url(#qnu6phkfuc)" d="M11.165 20.068V7.267l-3.21-3.216c-.386-.305-.56-.805-.45-1.283.11-.479.486-.851.966-.957.48-.106.978.074 1.279.462l1.415 1.414V1.568c0-.455.242-.875.636-1.102.394-.227.88-.227 1.273 0 .394.227.636.647.636 1.102v2.097l1.42-1.415c.504-.46 1.28-.443 1.762.04.481.483.496 1.26.034 1.761L13.71 7.267v12.801l3.216 3.227c.462.502.447 1.279-.034 1.762-.482.483-1.258.5-1.761.04l-1.42-1.415v2.096c0 .703-.57 1.273-1.274 1.273-.702 0-1.272-.57-1.272-1.273V23.67L9.75 25.085c-.505.423-1.249.39-1.715-.074-.467-.465-.502-1.21-.08-1.716l3.21-3.227z" transform="translate(-1158 -371) translate(1158 371) translate(60.227 28.41)"/>
                </g>
                <path fill="url(#9h4aslvhhd)" d="M54.58 53.653l-.944.569v-1.114c0-.941-.763-1.705-1.704-1.705-.942 0-1.705.764-1.705 1.705v1.09l-.943-.567c-.796-.36-1.736-.06-2.175.696-.44.756-.236 1.721.47 2.236l.944.568-.943.568c-.805.472-1.08 1.502-.62 2.312.472.804 1.502 1.08 2.313.62l.943-.569v1.091c0 .942.763 1.705 1.704 1.705.942 0 1.705-.763 1.705-1.705v-1.09l.943.568c.797.36 1.736.059 2.176-.697.44-.756.236-1.721-.471-2.235l-.943-.568.943-.569c.593-.267.981-.85 1.001-1.5.02-.65-.331-1.255-.906-1.56-.575-.304-1.274-.254-1.8.129l.012.022z" opacity=".85" transform="translate(-1158 -371) translate(1158 371)"/>
                <path fill="url(#5bvgu7czce)" d="M23.784 53.903l-.358.642-.358-.619c-.315-.523-.988-.704-1.523-.409-.518.317-.695.985-.403 1.517l.358.625h-.716c-.454-.098-.921.09-1.181.474-.26.385-.26.889 0 1.273.26.385.727.573 1.181.475h.716l-.358.619c-.296.534-.118 1.206.403 1.523.535.295 1.208.114 1.523-.41l.358-.619.358.62c.158.426.555.718 1.009.74.454.024.878-.227 1.078-.635.2-.409.136-.897-.16-1.242l-.359-.619h.716c.523-.113.897-.576.897-1.11 0-.536-.374-.999-.897-1.112h-.716l.358-.625c.164-.51-.05-1.065-.515-1.332-.465-.267-1.052-.173-1.41.224z" transform="translate(-1158 -371) translate(1158 371)"/>
                <path fill="url(#2k096hy59f)" d="M85.028 59.693l-.698.404v-.807c-.004-.69-.561-1.247-1.25-1.25-.692 0-1.253.558-1.256 1.25v.807l-.699-.404c-.388-.223-.865-.223-1.252.002-.388.224-.626.637-.625 1.085 0 .447.24.86.627 1.084l.699.403-.699.403c-.594.347-.8 1.107-.46 1.705.346.595 1.108.798 1.704.455l.7-.404v.807c-.032.468.2.914.6 1.157.4.244.903.244 1.304 0 .4-.243.632-.69.6-1.157v-.801l.7.403c.387.231.868.236 1.26.012.391-.223.632-.64.63-1.091-.002-.45-.247-.866-.64-1.086l-.7-.403.7-.403c.6-.346.805-1.111.46-1.71-.345-.6-1.11-.806-1.71-.46h.005z" transform="translate(-1158 -371) translate(1158 371)"/>
                <path fill="url(#2r6m7htdsg)" d="M54.466 81.13l-.568.319v-.63c0-.544-.44-.984-.983-.984-.261-.001-.512.102-.697.286-.185.185-.288.436-.286.697v.63l-.568-.317c-.471-.272-1.073-.11-1.344.36-.272.471-.11 1.073.36 1.344l.569.318-.568.313c-.227.13-.392.346-.46.599-.066.253-.03.522.102.748.272.468.871.628 1.34.357l.569-.318v.637c0 .35.187.675.491.85.304.176.68.176.983 0 .304-.175.492-.5.492-.85v-.637l.568.318c.304.176.68.176.984 0 .304-.176.491-.5.491-.852s-.188-.677-.492-.852l-.568-.313.568-.318c.47-.271.632-.873.36-1.344-.27-.47-.872-.632-1.343-.36z" opacity=".8" transform="translate(-1158 -371) translate(1158 371)"/>
                <path fill="url(#rb4r83gtrh)" d="M39.88 68.182l-.772.443v-.892c0-.366-.146-.717-.404-.976-.26-.26-.61-.405-.977-.405-.76.01-1.37.632-1.363 1.392v.892l-.79-.454c-.427-.247-.954-.247-1.381 0-.427.247-.69.703-.69 1.196s.263.95.69 1.196l.767.449-.767.443c-.318.182-.55.483-.647.837-.096.354-.047.731.136 1.05.383.66 1.23.887 1.892.505l.773-.443v.892c0 .762.618 1.38 1.38 1.38.763 0 1.381-.618 1.381-1.38v-.892l.773.443c.66.381 1.505.155 1.886-.506.381-.66.155-1.505-.506-1.886l-.772-.443.772-.45c.428-.246.69-.702.691-1.195 0-.493-.263-.95-.69-1.196-.428-.247-.954-.247-1.381 0z" opacity=".8" transform="translate(-1158 -371) translate(1158 371)"/>
                <path fill="url(#ooc3lsds5i)" d="M67.205 66.955l-.347.602-.341-.602c-.142-.247-.377-.426-.652-.499-.276-.072-.568-.032-.814.112-.246.142-.425.375-.499.649-.073.274-.035.566.107.811l.347.569h-.688c-.401-.03-.785.168-.995.511-.21.344-.21.775 0 1.119.21.343.594.54.995.512h.688l-.347.568c-.296.513-.12 1.169.392 1.466.513.296 1.17.12 1.466-.392l.341-.603.347.603c.183.349.542.569.936.574.394.005.76-.206.952-.55.192-.344.18-.765-.03-1.098l-.347-.568h.687c.402.029.786-.169.995-.512.21-.344.21-.775 0-1.119-.21-.343-.593-.54-.995-.511h-.687l.347-.569c.267-.51.085-1.14-.414-1.429-.499-.288-1.136-.131-1.444.356z" opacity=".8" transform="translate(-1158 -371) translate(1158 371)"/>
                <path fill="url(#pz0cwbiabj)" d="M52.989 30.682l-6.398 1.704-.841-.488-2.449-2.523 2.841-2.84.438-.257L53 27.983c.99.27 2.011-.314 2.281-1.304s-.314-2.011-1.304-2.281l-2.84-.756 2.653-1.534c.89-.513 1.195-1.65.682-2.54-.513-.89-1.65-1.195-2.54-.682l-2.66 1.534.728-2.806c.172-.642-.012-1.326-.482-1.795-.47-.47-1.154-.653-1.795-.48-.642.172-1.142.673-1.314 1.314l-1.704 6.42-.841.484-3.478.875-.983-3.449v-1l4.7-4.699c.47-.469.653-1.153.482-1.794-.171-.642-.671-1.143-1.312-1.316-.641-.172-1.326.01-1.796.48l-2.068 2.073V11.66c-.055-.988-.871-1.76-1.86-1.76-.99 0-1.807.772-1.861 1.76v3.068l-2.069-2.074c-.726-.726-1.904-.726-2.63 0-.727.727-.727 1.905 0 2.631l4.698 4.699v.511l-1.028 3.898-3.409-.858-.847-.483-1.704-6.42c-.272-1.004-1.306-1.598-2.31-1.327-1.004.271-1.598 1.305-1.326 2.31l.76 2.84-2.658-1.534c-.576-.331-1.285-.331-1.86.001-.575.333-.929.947-.929 1.611s.355 1.278.93 1.61l2.66 1.534-2.841.756c-.992.265-1.58 1.284-1.315 2.275.265.992 1.284 1.58 2.275 1.316l6.42-1.705.444.256 2.84 2.84-2.448 2.523-.824.45-6.42-1.705c-.656-.21-1.373-.043-1.868.435-.494.48-.684 1.192-.494 1.853.19.661.728 1.165 1.401 1.308l2.841.756-2.659 1.534c-.643.292-1.066.924-1.089 1.63-.023.707.356 1.366.979 1.7.623.334 1.381.285 1.957-.125l2.659-1.534-.762 2.84c-.127.478-.06.987.188 1.415.375.655 1.108 1.018 1.855.92.748-.099 1.362-.64 1.554-1.369l1.705-6.42.443-.256 3.852-1.028 1.029 3.835v.506l-4.7 4.699c-.471.469-.657 1.154-.487 1.797.17.643.67 1.147 1.312 1.32.642.175 1.329-.006 1.8-.475l2.069-2.068v3.068c.054.988.871 1.76 1.86 1.76.99 0 1.807-.772 1.861-1.76v-3.068l2.074 2.068c.727.726 1.905.726 2.631 0 .726-.727.726-1.905 0-2.631l-4.699-4.699v-.983l.96-3.409 3.904 1.04.443.256 1.704 6.42c.326.907 1.29 1.414 2.222 1.168.932-.245 1.521-1.162 1.358-2.111l-.761-2.841 2.681 1.54c.576.332 1.285.331 1.86-.001.575-.333.93-.947.929-1.61 0-.665-.355-1.279-.93-1.61l-2.643-1.524 2.841-.755c.665-.156 1.192-.663 1.372-1.322.18-.658-.013-1.363-.505-1.836-.493-.474-1.204-.64-1.855-.433zm-16.864.074c-.379-.376-.592-.887-.592-1.42 0-.534.213-1.046.592-1.421.785-.783 2.056-.783 2.84 0 .38.375.593.887.593 1.42 0 .534-.213 1.045-.592 1.42-.376.379-.888.591-1.422.59-.533-.001-1.044-.215-1.419-.595v.006z" transform="translate(-1158 -371) translate(1158 371)"/>
            </g>
        </g>
    </g>
</svg>
