<svg xmlns="http://www.w3.org/2000/svg" width="100" height="100" viewBox="0 0 100 100">
    <defs>
        <linearGradient id="4obqco6mba" x1="16.803%" x2="86.973%" y1="37.377%" y2="64.076%">
            <stop offset="0%" stop-color="#B8D6FF"/>
            <stop offset="98%" stop-color="#A6CDFF"/>
            <stop offset="100%" stop-color="#A6CDFF"/>
        </linearGradient>
        <linearGradient id="ssuvtb1eab" x1="-4876.358%" x2="-4909.963%" y1="-5170.165%" y2="-5125.718%">
            <stop offset="0%" stop-color="#B8D6FF"/>
            <stop offset="98%" stop-color="#A6CDFF"/>
            <stop offset="100%" stop-color="#A6CDFF"/>
        </linearGradient>
        <linearGradient id="q8xlwk6nic" x1="-4843.019%" x2="-4944.372%" y1="-5211.918%" y2="-5077.908%">
            <stop offset="0%" stop-color="#B8D6FF"/>
            <stop offset="98%" stop-color="#A6CDFF"/>
            <stop offset="100%" stop-color="#A6CDFF"/>
        </linearGradient>
        <linearGradient id="tjrbusgtsd" x1="8.788%" x2="75.496%" y1="13.311%" y2="73.269%">
            <stop offset="0%" stop-color="#C7DFFF"/>
            <stop offset="0%" stop-color="#C7DFFF"/>
            <stop offset="100%" stop-color="#A6CDFF"/>
        </linearGradient>
        <linearGradient id="dc5y4388ue" x1="-9244.534%" x2="-9219.852%" y1="-2574.433%" y2="-2490.391%">
            <stop offset="0%" stop-color="#C7DFFF"/>
            <stop offset="0%" stop-color="#C7DFFF"/>
            <stop offset="100%" stop-color="#A6CDFF"/>
        </linearGradient>
        <linearGradient id="gwfrrg7ulf" x1="18.789%" x2="81.206%" y1="15.529%" y2="84.045%">
            <stop offset="0%" stop-color="#C7DFFF"/>
            <stop offset="0%" stop-color="#C7DFFF"/>
            <stop offset="100%" stop-color="#A6CDFF"/>
        </linearGradient>
    </defs>
    <g fill="none" fill-rule="evenodd">
        <g fill-rule="nonzero">
            <g>
                <g opacity=".9">
                    <path fill="url(#4obqco6mba)" d="M18.052 10.171H6.365L3.437 7.177c-.457-.446-1.18-.436-1.625.02-.446.458-.453 1.196-.016 1.662L3.09 10.18H1.162C.52 10.181 0 10.713 0 11.37c0 .656.52 1.188 1.162 1.188H3.08l-1.293 1.322c-.438.466-.43 1.204.015 1.66.446.458 1.168.467 1.625.022l2.929-2.994h11.686l2.929 2.994c.454.464 1.19.464 1.645 0 .454-.465.454-1.218 0-1.682l-1.264-1.332h1.918c.642 0 1.162-.532 1.162-1.188 0-.656-.52-1.188-1.162-1.188h-1.918L22.65 8.85c.217-.223.338-.524.337-.839 0-.315-.12-.618-.337-.843-.218-.223-.514-.349-.822-.349-.31 0-.605.126-.823.35l-2.953 3.003z" transform="translate(-610 -371) translate(610 371) translate(52.84 55.682)"/>
                    <path fill="url(#ssuvtb1eab)" d="M14.123 5.602L8.275 15.953l-4.007 1.099c-.619.17-.985.823-.819 1.458.167.634.804 1.01 1.424.839l1.764-.5-.975 1.698c-.32.57-.13 1.297.427 1.625.555.328 1.266.133 1.586-.437l.975-1.697.487 1.807c.166.635.802 1.011 1.42.842.62-.17.988-.822.822-1.456l-1.072-4.104 5.849-10.352 4.006-1.103c.619-.17.987-.822.821-1.456-.165-.634-.802-1.01-1.42-.841l-1.77.5.975-1.699c.298-.565.103-1.272-.44-1.593C17.783.26 17.088.44 16.76.988l-.975 1.698-.487-1.808c-.169-.63-.801-1.004-1.419-.839-.62.17-.988.823-.823 1.458l1.067 4.105z" transform="translate(-610 -371) translate(610 371) translate(52.84 55.682)"/>
                    <path fill="url(#q8xlwk6nic)" d="M14.106 17.162L8.259 6.812 4.268 5.708c-.619-.17-.985-.823-.819-1.458.167-.634.804-1.01 1.423-.838l1.764.499-.975-1.698c-.33-.57-.145-1.307.412-1.645C6.63.23 7.35.419 7.68.99l.974 1.698L9.14.88c.167-.634.804-1.01 1.423-.839.62.171.986.824.819 1.458L10.31 5.603l5.847 10.35 4.005 1.1c.619.169.987.82.821 1.455-.165.634-.801 1.01-1.42.84l-1.769-.498.975 1.697c.221.368.23.831.022 1.208-.207.377-.598.608-1.02.604-.423-.004-.81-.243-1.01-.624l-.974-1.697-.488 1.807c-.165.635-.801 1.011-1.42.842-.619-.17-.987-.822-.821-1.456l1.048-4.069z" transform="translate(-610 -371) translate(610 371) translate(52.84 55.682)"/>
                </g>
                <path fill="url(#tjrbusgtsd)" d="M73.938 37.699h-1.21l.602-1.046c.515-.893.21-2.034-.682-2.55-.895-.516-2.038-.211-2.557.681l-.602 1.046-.603-1.046c-.516-.894-1.66-1.2-2.554-.685-.894.517-1.2 1.66-.684 2.554l.602 1.046h-1.21c-1.031.003-1.866.838-1.87 1.87 0 1.033.836 1.871 1.87 1.874h1.21l-.602 1.04c-.518.894-.213 2.039.682 2.557.894.518 2.039.212 2.556-.682l.603-1.045.602 1.045c.518.894 1.662 1.2 2.557.682.894-.518 1.2-1.663.682-2.557l-.603-1.04h1.205c.693.038 1.351-.31 1.71-.905.358-.595.358-1.34 0-1.934-.359-.595-1.017-.943-1.71-.905h.005z" opacity=".8" transform="translate(-610 -371) translate(610 371)"/>
                <path fill="url(#dc5y4388ue)" d="M42.54 73.432h-.807l.403-.699c.34-.598.135-1.358-.46-1.705-.598-.342-1.36-.136-1.704.46l-.415.671-.404-.699c-.226-.387-.642-.625-1.09-.623-.45.002-.863.244-1.086.634-.223.39-.22.869.006 1.256l.403.7h-.806c-.333 0-.653.131-.888.367-.236.235-.368.555-.368.888 0 .693.562 1.255 1.256 1.255h.806l-.403.7c-.255.389-.274.887-.049 1.294.225.407.656.657 1.121.649.466-.008.888-.273 1.098-.688l.404-.699.409.699c.21.415.633.68 1.098.688.465.008.897-.242 1.121-.649.225-.407.206-.905-.049-1.295l-.403-.698h.807c.448 0 .863-.24 1.087-.628.225-.389.225-.868 0-1.256-.224-.389-.639-.628-1.087-.628v.006z" opacity=".8" transform="translate(-610 -371) translate(610 371)"/>
                <path fill="url(#gwfrrg7ulf)" d="M52.16 39.097l-7.438 1.994-.978-.568-2.84-2.932 3.3-3.313.512-.295 7.443 2c.744.203 1.54-.006 2.088-.55.547-.542.764-1.336.568-2.082-.196-.745-.776-1.33-1.52-1.533L50 30.943l3.08-1.778c1.03-.595 1.384-1.913.79-2.943-.595-1.031-1.913-1.385-2.944-.79l-3.08 1.778.876-3.278c.313-1.149-.363-2.334-1.512-2.648-1.148-.314-2.334.363-2.648 1.511l-1.994 7.46-.977.569-4.034.994-1.137-3.977v-1.136l5.444-5.444c.544-.544.756-1.337.557-2.08-.2-.743-.78-1.323-1.523-1.522-.743-.2-1.536.013-2.08.557l-2.398 2.398v-3.569c-.058-1.147-1.006-2.048-2.156-2.048-1.15 0-2.097.9-2.156 2.048v3.557l-2.398-2.397c-.84-.841-2.204-.841-3.045 0-.841.84-.841 2.204 0 3.045l5.443 5.455v.568l-1.216 4.545-3.977-.994-.977-.568-1.972-7.438c-.203-.743-.787-1.321-1.532-1.517-.745-.195-1.538.021-2.08.569-.541.547-.75 1.342-.547 2.085l.875 3.278-3.068-1.801c-1.031-.595-2.349-.241-2.944.79-.594 1.03-.24 2.348.79 2.943l3.08 1.778-3.29.875c-1.124.335-1.775 1.506-1.466 2.638.308 1.131 1.464 1.81 2.602 1.527l7.42-1.994.512.295 3.301 3.313-2.84 2.931-.978.569-7.432-2c-.743-.203-1.537.005-2.085.547-.547.542-.764 1.335-.568 2.08.196.745.774 1.329 1.517 1.532l3.278.88-3.08 1.779c-1.028.602-1.374 1.925-.772 2.954.603 1.03 1.925 1.376 2.955.773l3.08-1.773-.887 3.267c-.203.743.006 1.538.548 2.085.541.548 1.334.764 2.08.569.744-.196 1.328-.774 1.53-1.517l1.995-7.443.512-.29 4.443-1.188 1.193 4.438v.568l-5.443 5.449c-.841.84-.841 2.204 0 3.045.84.841 2.204.841 3.045 0l2.398-2.397v3.55c-.041.797.36 1.552 1.045 1.962.684.411 1.539.411 2.223 0 .684-.41 1.085-1.165 1.044-1.961v-3.54l2.398 2.398c.544.544 1.337.756 2.08.557.743-.2 1.324-.78 1.523-1.523.2-.743-.013-1.536-.557-2.08L36.42 48.37v-1.136l1.137-3.92 4.545 1.204.512.29 1.949 7.466c.202.743.786 1.32 1.531 1.517.745.195 1.538-.021 2.08-.569.542-.547.75-1.342.548-2.085l-.875-3.272 3.08 1.772c1.024.55 2.3.186 2.88-.82.582-1.007.26-2.293-.727-2.907L50 44.136l3.273-.88c1.148-.314 1.825-1.5 1.511-2.648-.314-1.149-1.5-1.825-2.648-1.511h.023zm-19.705.25c-.994-1-.994-2.615 0-3.614.48-.48 1.13-.75 1.81-.75.678 0 1.33.27 1.809.75.994 1 .994 2.614 0 3.614-.48.48-1.13.75-1.81.75-.679 0-1.33-.27-1.81-.75z" transform="translate(-610 -371) translate(610 371)"/>
            </g>
        </g>
    </g>
</svg>
