<svg xmlns="http://www.w3.org/2000/svg" width="100" height="100" viewBox="0 0 100 100">
    <defs>
        <linearGradient id="picurrvfca" x1="12.244%" x2="74.075%" y1="8.801%" y2="76.111%">
            <stop offset="0%" stop-color="#C7DFFF"/>
            <stop offset="0%" stop-color="#C7DFFF"/>
            <stop offset="100%" stop-color="#A6CDFF"/>
        </linearGradient>
        <linearGradient id="d3hcwkutlb" x1="12.728%" x2="73.525%" y1="8.832%" y2="76.055%">
            <stop offset="0%" stop-color="#C7DFFF"/>
            <stop offset="0%" stop-color="#C7DFFF"/>
            <stop offset="100%" stop-color="#A6CDFF"/>
        </linearGradient>
        <linearGradient id="8rxlry0vyc" x1="8.828%" x2="76.181%" y1="12.021%" y2="74.231%">
            <stop offset="0%" stop-color="#C7DFFF"/>
            <stop offset="0%" stop-color="#C7DFFF"/>
            <stop offset="100%" stop-color="#A6CDFF"/>
        </linearGradient>
        <linearGradient id="plk4fog2kd" x1="-25.002%" x2="35.204%" y1="84.808%" y2="151.458%">
            <stop offset="0%" stop-color="#C7DFFF"/>
            <stop offset="0%" stop-color="#C7DFFF"/>
            <stop offset="100%" stop-color="#A6CDFF"/>
        </linearGradient>
        <linearGradient id="u2zowuijpe" x1="18.857%" x2="80.841%" y1="15.909%" y2="84.033%">
            <stop offset="0%" stop-color="#C7DFFF"/>
            <stop offset="0%" stop-color="#C7DFFF"/>
            <stop offset="100%" stop-color="#A6CDFF"/>
        </linearGradient>
    </defs>
    <g fill="none" fill-rule="evenodd">
        <g fill-rule="nonzero">
            <g>
                <path fill="url(#picurrvfca)" d="M77.37 42.12l-1.046-.603 1.045-.608c.431-.247.746-.656.875-1.136.129-.48.061-.99-.187-1.42-.249-.432-.658-.747-1.139-.876-.48-.129-.993-.061-1.424.188l-1.062.602v-1.205c0-.67-.358-1.288-.938-1.623-.58-.335-1.295-.335-1.875 0-.58.335-.937.954-.937 1.623v1.205l-1.046-.602c-.43-.249-.941-.316-1.42-.187-.48.129-.89.443-1.136.874-.248.432-.312.945-.18 1.425.132.48.45.888.884 1.132l1.046.608-1.046.602c-.62.313-1.016.944-1.03 1.638-.013.694.359 1.34.966 1.676.608.337 1.352.31 1.933-.07l1.046-.602v1.205c0 1.035.84 1.875 1.875 1.875 1.035 0 1.875-.84 1.875-1.875V44.76l1.045.603c.582.366 1.317.386 1.917.05.6-.335.967-.972.959-1.66-.009-.687-.393-1.314-1-1.635z" transform="translate(-473 -371) translate(473 371)"/>
                <path fill="url(#d3hcwkutlb)" d="M43.91 72.602l-.955-.568.954-.568c.395-.225.683-.598.801-1.036.119-.439.057-.906-.17-1.3-.225-.395-.6-.685-1.039-.803-.44-.119-.909-.056-1.302.173l-.96.568v-1.102c0-.941-.764-1.705-1.705-1.705-.941 0-1.704.764-1.704 1.705v1.102l-.955-.568c-.393-.23-.862-.292-1.302-.173-.44.118-.814.408-1.039.804-.228.393-.289.86-.17 1.299.118.438.406.811.8 1.036l.955.568-.954.568c-.53.305-.857.869-.858 1.48-.002.61.323 1.176.852 1.483.529.306 1.18.308 1.71.003l.955-.568v1.136c0 .942.763 1.705 1.704 1.705.942 0 1.705-.763 1.705-1.705V75l.96.568c.53.305 1.182.303 1.71-.003.53-.307.854-.872.853-1.483-.001-.611-.328-1.175-.858-1.48h.011z" transform="translate(-473 -371) translate(473 371)"/>
                <path fill="url(#8rxlry0vyc)" d="M75.614 72.16h-.756l.38-.66c.322-.562.13-1.278-.431-1.602-.27-.156-.59-.198-.891-.117-.3.08-.557.278-.711.549l-.381.653-.375-.653c-.193-.395-.59-.65-1.029-.66-.439-.011-.847.224-1.059.609-.212.385-.19.856.054 1.221l.38.66h-.755c-.648 0-1.173.522-1.176 1.17.003.647.528 1.17 1.176 1.17h.755l-.38.66c-.271.555-.066 1.226.47 1.534.536.309 1.22.15 1.564-.364l.375-.654.38.654c.193.394.59.649 1.03.66.438.01.847-.225 1.058-.61.212-.385.191-.856-.053-1.22l-.381-.66h.756c.646 0 1.17-.524 1.17-1.17 0-.647-.524-1.17-1.17-1.17z" opacity=".9" transform="translate(-473 -371) translate(473 371)"/>
                <path fill="url(#plk4fog2kd)" d="M58.523 54.648l-.568.312v-.62c-.015-.5-.41-.904-.91-.93-.53 0-.96.429-.96.96v.619l-.534-.313c-.297-.171-.664-.171-.96 0-.298.172-.481.49-.48.833 0 .343.183.66.48.832l.534.307-.534.307c-.221.127-.382.337-.448.583-.066.246-.032.508.096.729.267.457.852.615 1.312.352l.534-.312v.62c-.027.359.149.704.456.892.308.188.695.188 1.003 0 .308-.188.484-.533.456-.893v-.62l.568.313c.457.24 1.022.075 1.278-.373.257-.447.114-1.018-.323-1.291l-.534-.307.534-.307c.467-.276.622-.88.346-1.347-.276-.467-.879-.622-1.346-.346z" opacity=".8" transform="translate(-473 -371) translate(473 371)"/>
                <path fill="url(#u2zowuijpe)" d="M50.199 34.972l-6.38 1.704-.842-.483-2.432-2.517 2.841-2.84.438-.256 6.38 1.704c.66.24 1.397.088 1.906-.395.508-.483.7-1.213.493-1.883-.206-.67-.775-1.166-1.467-1.279l-2.84-.755 2.642-1.523c.602-.316.983-.936.992-1.616.01-.68-.355-1.31-.949-1.642-.594-.332-1.322-.311-1.896.053l-2.59 1.529.755-2.841c.238-.663.08-1.403-.409-1.91-.488-.508-1.222-.694-1.893-.482-.671.212-1.164.787-1.272 1.483l-1.704 6.38-.841.483-3.46.853-.978-3.41v-.965l4.67-4.677c.73-.721.737-1.898.015-2.627-.722-.73-1.898-.736-2.628-.015l-2.057 2.063v-3.046c.038-.685-.306-1.335-.894-1.689-.588-.354-1.323-.354-1.91 0-.589.354-.933 1.004-.895 1.69v3.05l-2.056-2.068c-.722-.721-1.892-.721-2.614 0-.722.722-.722 1.892 0 2.614l4.67 4.676v.506l-1.045 3.875-3.41-.852-.84-.483-1.693-6.358c-.17-.638-.668-1.136-1.306-1.307-.637-.17-1.317.011-1.784.478-.467.466-.649 1.146-.479 1.783l.756 2.841-2.642-1.528c-.88-.461-1.966-.146-2.463.714-.497.86-.228 1.958.61 2.49l2.643 1.523-2.841.756c-.637.171-1.135.67-1.305 1.308-.17.637.013 1.317.48 1.784.467.466 1.148.647 1.785.476l6.38-1.705.438.256 2.841 2.841-2.414 2.466-.841.483-6.381-1.705c-.637-.171-1.318.01-1.785.477-.467.466-.65 1.146-.48 1.784.17.637.667 1.136 1.305 1.307l2.84.756-2.641 1.523c-.839.532-1.108 1.63-.611 2.49.497.86 1.583 1.175 2.463.714l2.642-1.528-.756 2.813c-.13.474-.065.981.18 1.408.246.427.651.738 1.127.864.476.13.983.065 1.41-.182.427-.247.738-.653.863-1.13l1.704-6.381.444-.25 3.778-1.006 1.028 3.807v.506l-4.67 4.676c-.722.722-.722 1.892 0 2.614.722.721 1.892.721 2.613 0l2.057-2.063v3.051c-.038.685.306 1.336.894 1.69.588.354 1.323.354 1.911 0 .588-.354.932-1.005.894-1.69v-3.074l2.057 2.063c.722.722 1.892.722 2.614 0 .721-.722.721-1.892 0-2.614l-4.67-4.676v-.966l.954-3.363 3.88 1.034.444.25 1.704 6.38c.305.936 1.288 1.47 2.24 1.216.95-.254 1.536-1.207 1.334-2.17l-.756-2.813 2.642 1.529c.575.364 1.302.385 1.896.053.594-.331.958-.962.95-1.642-.01-.68-.39-1.3-.993-1.616l-2.642-1.523 2.84-.755c.638-.172 1.135-.67 1.306-1.308.17-.638-.013-1.318-.48-1.784-.468-.466-1.148-.648-1.786-.476H50.2zm-16.767.073c-.38-.375-.592-.887-.592-1.42 0-.533.213-1.045.592-1.42.375-.38.887-.593 1.42-.593.534 0 1.045.214 1.42.593.38.375.593.887.593 1.42 0 .533-.213 1.045-.592 1.42-.376.38-.887.593-1.42.593-.534 0-1.046-.214-1.421-.593z" transform="translate(-473 -371) translate(473 371)"/>
            </g>
        </g>
    </g>
</svg>
